<?xml version="1.0" encoding="UTF-8"?><svg id="Layer_2" xmlns="http://www.w3.org/2000/svg" viewBox="0 0 359.08 307"><g id="Layer_3"><path d="M138.32,170.5c-3.53,2.47-7.06,4.93-10.59,7.4l-5.29,3.7c-1.64,1.15-4.18,2.41-4.18,4.74s2.26,3.69,4.42,3.16c1.88-.46,3.69-1.9,5.34-2.87l11.36-6.68,12.64-7.43-2.52-4.32c-6.31,3.8-13.53,6.95-20.84,8.13-.36,.06-.72,.11-1.08,.09-.23-.01-.59-.17-.78-.16-.03,0-.11-.1-.14-.11,.24,.1-.36,.44,.15-.09,1.09-1.12,2.6-1.88,3.96-2.62,3.08-1.68,6.37-2.89,9.78-3.69,3.97-.92,8.04-1.17,12.1-.84l-2.16-3.76c-.58,1.37-1.47,2.35-2.92,2.77-3.08,.89-1.77,5.72,1.33,4.82,2.59-.75,4.85-2.56,5.91-5.07,.76-1.8-.12-3.6-2.16-3.76-8.9-.72-18.02,1.39-25.7,5.95-1.83,1.09-3.84,2.3-4.78,4.3-1.09,2.32-.18,4.92,1.94,6.29s4.65,.99,6.97,.48c2.19-.48,4.36-1.08,6.5-1.78,5.04-1.66,9.9-3.89,14.45-6.63,2.75-1.66,.26-5.95-2.52-4.32l-14.57,8.56-7.07,4.16-3.64,2.14-1.93,1.13c-.2,.12-.47,.26-.63,.38-.47,.37-.5-.57,.57,.17l.9,.9,.05,.02v1.33c-.32,.37-.33,.43-.04,.19l.61-.43,1.22-.85,2.04-1.42,4.68-3.27,9.16-6.4c1.11-.77,1.62-2.19,.9-3.42-.64-1.09-2.31-1.67-3.42-.9h0Z" style="fill:#c49a6c;"/><path d="M146.14,165.84c-4.29,1.72-8.58,3.43-12.86,5.15-1.25,.5-2.13,1.67-1.75,3.08,.36,1.29,1.77,2.12,3.08,1.75,8.62-2.49,17.23-4.97,25.85-7.46l-1.33-4.82c-14.49,5.84-29.85,9.56-45.43,10.83-4.49,.36-9,.53-13.5,.51l1.26,4.66c18.37-7.76,38.2-12.11,58.12-12.85,5.67-.21,11.35-.13,17.01,.23l-.66-4.91c-26.17,7.87-53.1,13.18-80.3,15.72-7.71,.72-15.44,1.22-23.18,1.52l.66,4.91c24.18-8.67,49.67-13.51,75.35-14.21,7.33-.2,14.66-.06,21.98,.4l-.66-4.91c-27.84,9.36-56.45,16.41-85.46,21.02-8.13,1.29-16.3,2.39-24.48,3.29l.66,4.91c25.47-3.86,50.93-7.73,76.4-11.59,7.23-1.1,14.46-2.19,21.69-3.29,1.34-.2,2.07-1.88,1.75-3.08-.39-1.43-1.74-1.95-3.08-1.75-25.47,3.86-50.93,7.73-76.4,11.59-7.23,1.1-14.46,2.19-21.69,3.29-2.76,.42-2.14,5.22,.66,4.91,29.58-3.26,58.87-8.95,87.49-17.1,7.98-2.27,15.91-4.74,23.78-7.38,2.7-.91,2.18-4.73-.66-4.91-26.06-1.64-52.39,.91-77.66,7.49-7.1,1.85-14.1,4.02-21,6.49-2.51,.9-2.32,5.02,.66,4.91,27.66-1.04,55.24-4.82,82.16-11.29,7.61-1.83,15.16-3.88,22.66-6.13,2.76-.83,2.13-4.73-.66-4.91-20.56-1.31-41.39,1.15-61.08,7.22-5.63,1.74-11.15,3.79-16.58,6.08-2.39,1.01-1.03,4.65,1.26,4.66,15.99,.07,32.01-2.25,47.3-6.92,4.38-1.34,8.71-2.88,12.96-4.59,1.25-.5,2.13-1.67,1.75-3.08-.36-1.29-1.77-2.12-3.08-1.75-8.62,2.49-17.23,4.97-25.85,7.46l1.33,4.82,12.86-5.15c1.25-.5,2.13-1.67,1.75-3.08-.33-1.19-1.81-2.25-3.08-1.75h0Z" style="fill:#c49a6c;"/><path d="M20.94,155.07c2.98,8.57,5.33,17.39,7.93,26.08,.93,3.9,2.72,7.3,5.37,10.2,2.12,3.27,4.92,5.84,8.42,7.73,3.44,2.19,7.16,3.38,11.15,3.56,3.99,.89,7.98,.71,11.96-.54l7.17-3.02c4.51-2.67,8.1-6.25,10.76-10.76l3.02-7.17c1.43-5.32,1.43-10.63,0-15.95-2.61-8.69-4.95-17.51-7.93-26.08-.93-3.9-2.72-7.3-5.37-10.2-2.12-3.27-4.92-5.84-8.42-7.73-3.44-2.19-7.16-3.38-11.15-3.56-3.99-.89-7.98-.71-11.96,.54l-7.17,3.02c-4.51,2.67-8.1,6.25-10.76,10.76l-3.02,7.17c-1.43,5.32-1.43,10.63,0,15.95h0Z" style="fill:#c49a6c;"/><path d="M28.62,188.81c1.63,2.37,3,4.89,4.13,7.53l-3.02-7.17c1.44,3.46,2.42,7.06,2.94,10.77l-1.07-7.98c.32,2.48,.41,4.95,.33,7.44-.16,5.27,.43,10.09,1.28,15.38,.93,3.9,2.72,7.3,5.37,10.2,2.12,3.27,4.92,5.84,8.42,7.73,3.44,2.19,7.16,3.38,11.15,3.56,3.99,.89,7.98,.71,11.96-.54l7.17-3.02c4.51-2.67,8.1-6.25,10.76-10.76l3.02-7.17c1.43-5.32,1.43-10.63,0-15.95l-.07-.46,1.07,7.98c-.41-3.08-.08-6.15-.1-9.24-.01-1.43-.1-2.87-.26-4.29-.44-3.93-.88-7.92-1.68-11.8s-2.36-7.63-3.94-11.38-3.25-7.63-5.65-11.12c-1.89-3.5-4.46-6.3-7.73-8.42-2.9-2.65-6.3-4.44-10.2-5.37-3.99-1.25-7.98-1.43-11.96-.54-3.99,.18-7.71,1.37-11.15,3.56l-6.07,4.69c-3.72,3.74-6.29,8.16-7.72,13.24l-1.07,7.98c.02,5.42,1.38,10.46,4.1,15.14h0Z" style="fill:#c49a6c;"/><path d="M81.56,205.18c17.84,.37,35.67,.74,53.51,1.11l15.18,.31c4.13,.16,7.98-.71,11.56-2.58,3.72-1.21,6.94-3.28,9.65-6.2,2.93-2.72,4.99-5.94,6.2-9.65,1.88-3.58,2.74-7.43,2.58-11.56-.36-2.66-.71-5.32-1.07-7.98-1.43-5.08-4-9.49-7.72-13.24l-6.07-4.69c-4.68-2.71-9.73-4.08-15.14-4.1-17.84-.37-35.67-.74-53.51-1.11l-15.18-.31c-4.13-.16-7.98,.71-11.56,2.58-3.72,1.21-6.94,3.28-9.65,6.2-2.93,2.72-4.99,5.94-6.2,9.65-1.88,3.58-2.74,7.43-2.58,11.56l1.07,7.98c1.43,5.08,4,9.49,7.72,13.24l6.07,4.69c4.68,2.71,9.73,4.08,15.14,4.1h0Z" style="fill:#c49a6c;"/><path d="M87.59,228.77c18.33-.04,36.67-.07,55-.11,4.13,.16,7.98-.71,11.56-2.58,3.72-1.21,6.94-3.28,9.65-6.2,2.93-2.72,4.99-5.94,6.2-9.65,1.88-3.58,2.74-7.43,2.58-11.56l-1.07-7.98c-1.43-5.08-4-9.49-7.72-13.24l-6.07-4.69c-4.68-2.71-9.73-4.08-15.14-4.1-18.33,.04-36.67,.07-55,.11-4.13-.16-7.98,.71-11.56,2.58-3.72,1.21-6.94,3.28-9.65,6.2-2.93,2.72-4.99,5.94-6.2,9.65-1.88,3.58-2.74,7.43-2.58,11.56l1.07,7.98c1.43,5.08,4,9.49,7.72,13.24l6.07,4.69c4.68,2.71,9.73,4.08,15.14,4.1h0Z" style="fill:#c49a6c;"/><path d="M83.21,189.6c19-1.88,37.99-3.77,56.99-5.65l16.35-1.62c4.13,.16,7.98-.71,11.56-2.58,3.72-1.21,6.94-3.28,9.65-6.2,2.93-2.72,4.99-5.94,6.2-9.65,1.88-3.58,2.74-7.43,2.58-11.56l-1.07-7.98c-1.43-5.08-4-9.49-7.72-13.24l-6.07-4.69c-4.68-2.71-9.73-4.08-15.14-4.1-19,1.88-37.99,3.77-56.99,5.65-5.45,.54-10.9,1.08-16.35,1.62-4.13-.16-7.98,.71-11.56,2.58-3.72,1.21-6.94,3.28-9.65,6.2-2.93,2.72-4.99,5.94-6.2,9.65-1.88,3.58-2.74,7.43-2.58,11.56l1.07,7.98c1.43,5.08,4,9.49,7.72,13.24l6.07,4.69c4.68,2.71,9.73,4.08,15.14,4.1h0Z" style="fill:#c49a6c;"/><path d="M67.43,174.53c19.93-3.55,39.86-7.1,59.79-10.65,3.9-.93,7.3-2.72,10.2-5.37,3.27-2.12,5.84-4.92,7.73-8.42,2.19-3.44,3.38-7.16,3.56-11.15,.89-3.99,.71-7.98-.54-11.96l-3.02-7.17c-2.67-4.51-6.25-8.1-10.76-10.76l-7.17-3.02c-5.32-1.43-10.63-1.43-15.95,0-19.93,3.55-39.86,7.1-59.79,10.65-3.9,.93-7.3,2.72-10.2,5.37-3.27,2.12-5.84,4.92-7.73,8.42-2.19,3.44-3.38,7.16-3.56,11.15-.89,3.99-.71,7.98,.54,11.96l3.02,7.17c2.67,4.51,6.25,8.1,10.76,10.76l7.17,3.02c5.32,1.43,10.63,1.43,15.95,0h0Z" style="fill:#c49a6c;"/><path d="M58.14,154.65c9.28-2.63,18.11-6.23,26.96-10.04,6.58-2.83,12.95-6.11,19.09-9.79,3.5-1.89,6.3-4.46,8.42-7.73,2.65-2.9,4.44-6.3,5.37-10.2,1.25-3.99,1.43-7.98,.54-11.96-.18-3.99-1.37-7.71-3.56-11.15l-4.69-6.07c-3.74-3.72-8.16-6.29-13.24-7.72l-7.98-1.07c-5.42,.02-10.46,1.38-15.14,4.1-6.4,3.84-13.06,7.23-19.93,10.15l7.17-3.02c-6.18,2.61-12.5,4.83-18.95,6.65-3.9,.93-7.3,2.72-10.2,5.37-3.27,2.12-5.84,4.92-7.73,8.42-2.19,3.44-3.38,7.16-3.56,11.15-.89,3.99-.71,7.98,.54,11.96l3.02,7.17c2.67,4.51,6.25,8.1,10.76,10.76l7.17,3.02c5.32,1.43,10.63,1.43,15.95,0h0Z" style="fill:#c49a6c;"/><path d="M58.59,138.96c3.71-2.58,7.24-5.31,10.81-8.11,1.58-1.24,3.12-2.53,4.51-3.99,.6-.63,1.17-1.3,1.71-1.98,2.08-2.6,4.31-5.21,6.08-8.06,.5-.8,.92-1.63,1.31-2.48,1.37-3.03,2.94-6.18,3.82-9.43,.1-.39,.2-.78,.27-1.17,.57-2.99,.95-6.12,1.25-9.14,.11-1.09,.13-2.18,.06-3.27-.24-3.52-.78-7.08-1.4-10.55-.21-1.17-.5-2.33-.82-3.48-1.23-4.32-2.92-8.52-4.81-12.58-.17-.37-.34-.73-.57-1.08-.09-.14-.2-.27-.3-.41-.85-1.18-3.8-5.18-4.8-6.19s-2.26-1.81-3.38-2.68c.84,.65-2.25-1.91-3.29-2.52-1.1-.64-4.2-1.8-3.85-1.65-2.75-1.16-2.53-1.27-4.17-1.64-.94-.22-7.22-1.07-8.13-1.06-1.28,0-7.03,.82-8.27,1.11-5.02,1.15-7.23,2.86-10.81,5.63-3.76,2.9-5.5,3.97-8.18,8.89-.06,.12-.14,.24-.21,.35l-3.02,7.17-.11,.26c-.06,.19-.11,.37-.16,.57l-.05,.3-1.07,7.98c-.03,.42-.04,.81-.02,1.23,.23,3.49,.96,6.92,1.52,10.36l-1.07-7.98c.06,.48,.09,.94,.06,1.42l1.07-7.98c-.05,.35-.13,.63-.26,.96l3.02-7.17-.17,.29,4.69-6.07-.22,.27c-2.93,2.72-4.99,5.94-6.2,9.65-1.88,3.58-2.74,7.43-2.58,11.56-.16,4.13,.71,7.98,2.58,11.56,1.21,3.72,3.28,6.94,6.2,9.65l6.07,4.69c4.68,2.71,9.73,4.08,15.14,4.1l7.98-1.07c5.08-1.43,9.49-4,13.24-7.72,1.7-2.13,3.71-4.08,4.99-6.49,.71-1.34,2.74-6.01,3.17-7.46,.08-.27,.14-.53,.2-.81l1.07-7.98c.02-.17,.03-.35,.02-.52-.03-3.7-.9-7.34-1.56-10.96l1.07,7.98c-.07-.52-.07-1.01-.02-1.53l-1.07,7.98c.07-.4,.16-.76,.32-1.13l-3.02,7.17c.08-.16,.17-.32,.28-.46l-4.69,6.07c.11-.14,.23-.26,.38-.36l-6.07,4.69,.22-.13-7.17,3.02c.17-.08,.34-.13,.52-.16l-7.98,1.07h.32c-2.66-.37-5.32-.73-7.98-1.09,.2,0,.4,.05,.58,.13l-7.17-3.02c.19,.08,.36,.18,.52,.31l-6.07-4.69c.17,.14,.32,.29,.45,.45l-4.69-6.07c.36,.47,.62,.95,.86,1.49l-3.02-7.17c1.26,3.13,2.25,6.5,2.76,9.83l-1.07-7.98c.23,1.72,.28,3.42,.09,5.15l1.07-7.98c-.22,1.52-.62,2.95-1.22,4.37l3.02-7.17c-.72,1.6-1.63,3.08-2.69,4.47l4.69-6.07c-1.8,2.27-3.94,4.2-6.22,5.97l6.07-4.69c-1.55,1.18-3.14,2.3-4.73,3.41-3.5,1.89-6.3,4.46-8.42,7.73-2.65,2.9-4.44,6.3-5.37,10.2-1.25,3.99-1.43,7.98-.54,11.96,.18,3.99,1.37,7.71,3.56,11.15l4.69,6.07c3.74,3.72,8.16,6.29,13.24,7.72l7.98,1.07c5.42-.02,10.46-1.38,15.14-4.1h0Z" style="fill:#c49a6c;"/><path d="M36.65,43.77l-3.01,3.32c-2.93,2.72-4.99,5.94-6.2,9.65-1.88,3.58-2.74,7.43-2.58,11.56-.16,4.13,.71,7.98,2.58,11.56,1.21,3.72,3.28,6.94,6.2,9.65l6.07,4.69c4.68,2.71,9.73,4.08,15.14,4.1l7.98-1.07c5.08-1.43,9.49-4,13.24-7.72l3.01-3.32c2.93-2.72,4.99-5.94,6.2-9.65,1.88-3.58,2.74-7.43,2.58-11.56,.16-4.13-.71-7.98-2.58-11.56-1.21-3.72-3.28-6.94-6.2-9.65l-6.07-4.69c-4.68-2.71-9.73-4.08-15.14-4.1l-7.98,1.07c-5.08,1.43-9.49,4-13.24,7.72h0Z" style="fill:#c49a6c;"/><path d="M54.25,98.7c4.13,.16,7.98-.71,11.56-2.58,3.72-1.21,6.94-3.28,9.65-6.2,2.93-2.72,4.99-5.94,6.2-9.65,1.88-3.58,2.74-7.43,2.58-11.56l-1.07-7.98c-1.43-5.08-4-9.49-7.72-13.24l-6.07-4.69c-4.68-2.71-9.73-4.08-15.14-4.1-4.13-.16-7.98,.71-11.56,2.58-3.72,1.21-6.94,3.28-9.65,6.2-2.93,2.72-4.99,5.94-6.2,9.65-1.88,3.58-2.74,7.43-2.58,11.56l1.07,7.98c1.43,5.08,4,9.49,7.72,13.24l6.07,4.69c4.68,2.71,9.73,4.08,15.14,4.1h0Z" style="fill:#c49a6c;"/><path d="M87.5,234.31c11.93,2.66,23.84,4.89,36.01,6.21,4.76,.51,9.55,.76,14.34,.6,2.39-.08,4.77-.27,7.14-.57,4.75-.59,9.56-1.12,14.24-2.17,4.18-.93,8.27-2.25,12.23-3.87,6.26-2.56,12.47-5.15,18.33-8.54,3.73-2.15,7.32-4.54,10.79-7.11,5.6-4.15,11.12-8.44,16.34-13.06,7.84-6.95,15.08-14.54,22.3-22.12,2.93-2.72,4.99-5.94,6.2-9.65,1.88-3.58,2.74-7.43,2.58-11.56,.16-4.13-.71-7.98-2.58-11.56-1.21-3.72-3.28-6.94-6.2-9.65l-6.07-4.69c-4.68-2.71-9.73-4.08-15.14-4.1l-7.98,1.07c-5.08,1.43-9.49,4-13.24,7.72-9.66,10.14-19.37,20.3-30.47,28.9l6.07-4.69c-7.18,5.53-14.91,10.34-23.27,13.88l7.17-3.02c-6.04,2.53-12.33,4.33-18.82,5.23l7.98-1.07c-8.42,1.11-16.91,.73-25.3-.37l7.98,1.07c-8.31-1.12-16.51-2.91-24.69-4.73-3.99-1.25-7.98-1.43-11.96-.54-3.99,.18-7.71,1.37-11.15,3.56-3.5,1.89-6.3,4.46-8.42,7.73-2.65,2.9-4.44,6.3-5.37,10.2l-1.07,7.98c.02,5.42,1.38,10.46,4.1,15.14l4.69,6.07c3.74,3.72,8.16,6.29,13.24,7.72h0Z" style="fill:#c49a6c;"/><path d="M209.78,170.51c-2.4-7.5-5.49-14.84-8.93-21.91-2.32-4.77-4.98-9.37-7.94-13.76-7.32-10.86-15.83-21.2-25.89-29.64-6.49-5.45-13.31-10.66-20.6-15.01,2.02,15.71,4.05,31.41,6.07,47.12l.31-.25-6.07,4.69c1.49-1.15,3.1-2.07,4.83-2.82l-7.17,3.02c2.13-.87,4.33-1.43,6.61-1.75l-7.98,1.07c3.01-.38,6.01-.3,9.02,.08l-7.98-1.07c5.17,.71,10.17,2.26,15.1,3.93s9.78,3.52,14.56,5.54l-7.17-3.02c8.14,3.45,16.06,7.4,23.72,11.82-2.02-15.71-4.05-31.41-6.07-47.12-.43,.43-.88,.84-1.36,1.22l6.07-4.69c-.97,.72-2,1.3-3.11,1.78l7.17-3.02c-1.6,.65-3.26,1.04-4.97,1.29l7.98-1.07c-5.61,.72-11.4-.03-16.97-.76l7.98,1.07c-13.22-1.78-26.16-5.33-38.46-10.48l7.17,3.02c-12.03-5.08-23.39-11.67-33.74-19.64l6.07,4.69c-3.88-3.01-8.01-6.1-11.07-9.97l4.69,6.07c-.81-1.07-1.51-2.19-2.04-3.43l3.02,7.17c-.28-.72-.49-1.44-.62-2.2l1.07,7.98c-.1-.77-.1-1.5-.01-2.27l-1.07,7.98c.1-.59,.25-1.14,.46-1.7l-3.02,7.17c.29-.69,.65-1.31,1.1-1.91l-4.69,6.07c.47-.58,.99-1.09,1.57-1.56l-6.07,4.69c.97-.75,2.02-1.34,3.15-1.83l-7.17,3.02c2.21-.93,4.52-1.42,6.88-1.75l-7.98,1.07c3.22-.41,6.46-.51,9.69-.1l-7.98-1.07c2.18,.31,4.28,.86,6.32,1.71l-7.17-3.02c1.5,.66,2.9,1.48,4.2,2.48l-6.07-4.69c1.17,.93,2.22,1.96,3.15,3.12l-4.69-6.07c.9,1.17,1.64,2.41,2.22,3.76l-3.02-7.17c.45,1.13,.77,2.29,.94,3.5l-1.07-7.98c.09,.8,.12,1.57,.03,2.36l1.07-7.98c-.08,.53-.21,1.04-.4,1.54l3.02-7.17c-.17,.38-.36,.71-.61,1.04l4.69-6.07c-.12,.15-.26,.29-.41,.41l6.07-4.69c-.25,.18-.47,.31-.76,.43l7.17-3.02c-.22,.08-.44,.13-.67,.15l7.98-1.07c-.25,.02-.5,0-.75-.04l7.98,1.07c-.25-.05-.5-.12-.73-.22l7.17,3.02c-.62-.28-1.17-.64-1.71-1.05l6.07,4.69c-6.57-5.32-12.68-11.34-18.58-17.39s-11.63-12.47-17.02-19.07l-21.21,51.21c2.26-.01,4.52-.02,6.79-.03,4.13,.16,7.98-.71,11.56-2.58,3.72-1.21,6.94-3.28,9.65-6.2,2.93-2.72,4.99-5.94,6.2-9.65,1.88-3.58,2.74-7.43,2.58-11.56l-1.07-7.98c-1.43-5.08-4-9.49-7.72-13.24l-6.07-4.69c-4.68-2.71-9.73-4.08-15.14-4.1-2.26,.01-4.52,.02-6.79,.03l-7.98,1.07-7.17,3.02-6.07,4.69c-2.93,2.72-4.99,5.94-6.2,9.65-1.36,2.34-2.04,4.86-2.05,7.57-.71,2.66-.71,5.32,0,7.98,0,2.71,.69,5.23,2.05,7.57,1.21,3.72,3.28,6.94,6.2,9.65,5.93,7.26,12.19,14.23,18.8,20.87,3.36,3.38,6.8,6.67,10.32,9.87,1.7,1.55,3.43,3.08,5.17,4.59,.44,.38,.87,.75,1.32,1.12,2.2,1.8,4.48,3.77,6.9,5.28,.23,.14,.46,.26,.7,.38,1.42,.71,5.8,2.61,7.35,3.11,.25,.08,.48,.15,.73,.22l7.98,1.07c.19,.04,.38,.05,.56,.04,1.02,.05,7.11-.87,8.16-1.07,.23-.05,.44-.1,.67-.15,1.33-.3,5.62-1.96,7.92-3.46,.79-.52,5.54-4.16,6.18-4.79,1.02-1,1.74-2.17,2.65-3.35,1.06-1.37,2.21-2.55,2.96-4.07,.66-1.33,2.63-5.94,3.08-7.31,.07-.2,.14-.4,.19-.6,.04-.16,.07-.31,.1-.47,.49-2.33,.91-5.91,1.12-8.29,.04-.43,.07-.84,.06-1.27-.1-3.01-.7-6.1-1.16-9.07-.14-.9-.32-1.78-.62-2.65-.93-2.72-2.18-5.39-3.34-8.02-.22-.5-.45-.99-.71-1.48-.41-.75-.89-1.46-1.4-2.14-1.88-2.51-4-5.66-6.41-8s-5.27-4.34-7.91-6.26c-.8-.58-1.63-1.12-2.51-1.59-3-1.59-6.21-2.81-9.38-4.02-1.09-.42-2.21-.75-3.35-1-4.65-1.03-9.52-1.72-14.3-1.73s-9.66,.86-14.37,1.57c-1.72,.26-3.42,.64-5.06,1.24-3.12,1.15-6.24,2.38-9.19,3.91-1.86,.97-3.47,2.4-5.11,3.67s-3.29,2.34-4.61,3.91c-1.77,2.11-3.66,4.38-5.14,6.71-.23,.36-.4,.74-.59,1.12-1.24,2.57-2.56,5.28-3.34,8.08-.05,.18-.09,.36-.13,.54-.54,2.45-.9,5.85-1.14,8.36-.34,3.48,.44,7.48,1.15,10.62,.1,.43,.21,.86,.35,1.28,.96,2.75,2.23,5.6,3.46,8.24,.43,.91,.97,1.75,1.56,2.57,2.67,3.68,5.38,7.39,8.79,10.41,4.97,4.41,10.29,8.46,15.62,12.41,6.86,5.09,14.15,9.58,21.77,13.43,5.97,3.02,12.16,5.59,18.35,8.12,3.92,1.6,7.91,3.03,11.95,4.3,8.08,2.53,16.37,4.37,24.77,5.51,6.54,.89,13.22,2.01,19.85,2.13,4.51,.08,9.02-.69,13.46-1.37s8.33-2.62,12.28-4.43c.76-.35,1.5-.74,2.19-1.22,2.38-1.62,4.74-3.49,6.94-5.34,.38-.31,.73-.64,1.08-.99,3.72-3.74,6.29-8.16,7.72-13.24,1.25-3.99,1.43-7.98,.54-11.96-.18-3.99-1.37-7.71-3.56-11.15-2.67-4.51-6.25-8.1-10.76-10.76-11.66-6.73-23.95-12.23-36.49-17.12-5.13-2-10.34-3.87-15.63-5.37-2.62-.75-5.27-1.36-7.96-1.76-5.04-.75-10.29-1.74-15.44-1.41-.67,.04-1.35,.12-2.02,.2-3.19,.39-6.42,.72-9.57,1.33-1.32,.25-2.62,.6-3.89,1.06-3.49,1.26-7,2.64-10.27,4.41s-6.46,4.58-9.23,6.81c-3.72,3.74-6.29,8.16-7.72,13.24-1.25,3.99-1.43,7.98-.54,11.96,.18,3.99,1.37,7.71,3.56,11.15,2.67,4.51,6.25,8.1,10.76,10.76,3.78,2.25,7.41,4.73,10.9,7.41l-6.07-4.69c7.68,5.94,14.56,12.84,20.51,20.52l-4.69-6.07c5.92,7.69,10.86,16.1,14.66,25.03l-3.02-7.17c1.31,3.1,2.47,6.25,3.5,9.45,.93,3.9,2.72,7.3,5.37,10.2,2.12,3.27,4.92,5.84,8.42,7.73,3.44,2.19,7.16,3.38,11.15,3.56,3.99,.89,7.98,.71,11.96-.54l7.17-3.02c4.51-2.67,8.1-6.25,10.76-10.76l3.02-7.17c1.43-5.32,1.43-10.63,0-15.95h0Z" style="fill:#c49a6c;"/><path d="M75.25,82.04c4.13,.16,7.98-.71,11.56-2.58,3.72-1.21,6.94-3.28,9.65-6.2,2.93-2.72,4.99-5.94,6.2-9.65,1.88-3.58,2.74-7.43,2.58-11.56l-1.07-7.98c-1.43-5.08-4-9.49-7.72-13.24l-6.07-4.69c-4.68-2.71-9.73-4.08-15.14-4.1-4.13-.16-7.98,.71-11.56,2.58-3.72,1.21-6.94,3.28-9.65,6.2-2.93,2.72-4.99,5.94-6.2,9.65-1.88,3.58-2.74,7.43-2.58,11.56l1.07,7.98c1.43,5.08,4,9.49,7.72,13.24l6.07,4.69c4.68,2.71,9.73,4.08,15.14,4.1h0Z" style="fill:#c49a6c;"/><path d="M66.59,83.04c4.13,.16,7.98-.71,11.56-2.58,3.72-1.21,6.94-3.28,9.65-6.2,2.93-2.72,4.99-5.94,6.2-9.65,1.88-3.58,2.74-7.43,2.58-11.56l-1.07-7.98c-1.43-5.08-4-9.49-7.72-13.24l-6.07-4.69c-4.68-2.71-9.73-4.08-15.14-4.1-4.13-.16-7.98,.71-11.56,2.58-3.72,1.21-6.94,3.28-9.65,6.2-2.93,2.72-4.99,5.94-6.2,9.65-1.88,3.58-2.74,7.43-2.58,11.56l1.07,7.98c1.43,5.08,4,9.49,7.72,13.24l6.07,4.69c4.68,2.71,9.73,4.08,15.14,4.1h0Z" style="fill:#c49a6c;"/><path d="M95.25,78.7c4.13,.16,7.98-.71,11.56-2.58,3.72-1.21,6.94-3.28,9.65-6.2,2.93-2.72,4.99-5.94,6.2-9.65,1.88-3.58,2.74-7.43,2.58-11.56l-1.07-7.98c-1.43-5.08-4-9.49-7.72-13.24l-6.07-4.69c-4.68-2.71-9.73-4.08-15.14-4.1-4.13-.16-7.98,.71-11.56,2.58-3.72,1.21-6.94,3.28-9.65,6.2-2.93,2.72-4.99,5.94-6.2,9.65-1.88,3.58-2.74,7.43-2.58,11.56l1.07,7.98c1.43,5.08,4,9.49,7.72,13.24l6.07,4.69c4.68,2.71,9.73,4.08,15.14,4.1h0Z" style="fill:#c49a6c;"/><path d="M86.25,77.7c4.13,.16,7.98-.71,11.56-2.58,3.72-1.21,6.94-3.28,9.65-6.2,2.93-2.72,4.99-5.94,6.2-9.65,1.88-3.58,2.74-7.43,2.58-11.56l-1.07-7.98c-1.43-5.08-4-9.49-7.72-13.24l-6.07-4.69c-4.68-2.71-9.73-4.08-15.14-4.1-4.13-.16-7.98,.71-11.56,2.58-3.72,1.21-6.94,3.28-9.65,6.2-2.93,2.72-4.99,5.94-6.2,9.65-1.88,3.58-2.74,7.43-2.58,11.56l1.07,7.98c1.43,5.08,4,9.49,7.72,13.24l6.07,4.69c4.68,2.71,9.73,4.08,15.14,4.1h0Z" style="fill:#c49a6c;"/><path d="M83.92,17.7h-.67c-4.13-.16-7.98,.71-11.56,2.58-3.72,1.21-6.94,3.28-9.65,6.2-2.93,2.72-4.99,5.94-6.2,9.65-1.88,3.58-2.74,7.43-2.58,11.56l1.07,7.98c1.43,5.08,4,9.49,7.72,13.24l6.07,4.69c4.68,2.71,9.73,4.08,15.14,4.1h.67c4.13,.16,7.98-.71,11.56-2.58,3.72-1.21,6.94-3.28,9.65-6.2,2.93-2.72,4.99-5.94,6.2-9.65,1.88-3.58,2.74-7.43,2.58-11.56l-1.07-7.98c-1.43-5.08-4-9.49-7.72-13.24l-6.07-4.69c-4.68-2.71-9.73-4.08-15.14-4.1h0Z" style="fill:#c49a6c;"/><path d="M79.59,79.04c4.13,.16,7.98-.71,11.56-2.58,3.72-1.21,6.94-3.28,9.65-6.2,2.93-2.72,4.99-5.94,6.2-9.65,1.88-3.58,2.74-7.43,2.58-11.56l-1.07-7.98c-1.43-5.08-4-9.49-7.72-13.24l-6.07-4.69c-4.68-2.71-9.73-4.08-15.14-4.1-4.13-.16-7.98,.71-11.56,2.58-3.72,1.21-6.94,3.28-9.65,6.2-2.93,2.72-4.99,5.94-6.2,9.65-1.88,3.58-2.74,7.43-2.58,11.56l1.07,7.98c1.43,5.08,4,9.49,7.72,13.24l6.07,4.69c4.68,2.71,9.73,4.08,15.14,4.1h0Z" style="fill:#c49a6c;"/><path d="M98.59,77.7c4.13,.16,7.98-.71,11.56-2.58,3.72-1.21,6.94-3.28,9.65-6.2,2.93-2.72,4.99-5.94,6.2-9.65,1.88-3.58,2.74-7.43,2.58-11.56l-1.07-7.98c-1.43-5.08-4-9.49-7.72-13.24l-6.07-4.69c-4.68-2.71-9.73-4.08-15.14-4.1-4.13-.16-7.98,.71-11.56,2.58-3.72,1.21-6.94,3.28-9.65,6.2-2.93,2.72-4.99,5.94-6.2,9.65-1.88,3.58-2.74,7.43-2.58,11.56l1.07,7.98c1.43,5.08,4,9.49,7.72,13.24l6.07,4.69c4.68,2.71,9.73,4.08,15.14,4.1h0Z" style="fill:#c49a6c;"/><path d="M108.2,75.87l4.04-1.19c3.9-.93,7.3-2.72,10.2-5.37,3.27-2.12,5.84-4.92,7.73-8.42,2.19-3.44,3.38-7.16,3.56-11.15,.89-3.99,.71-7.98-.54-11.96l-3.02-7.17c-2.67-4.51-6.25-8.1-10.76-10.76l-7.17-3.02c-5.32-1.43-10.63-1.43-15.95,0l-4.04,1.19c-3.9,.93-7.3,2.72-10.2,5.37-3.27,2.12-5.84,4.92-7.73,8.42-2.19,3.44-3.38,7.16-3.56,11.15-.89,3.99-.71,7.98,.54,11.96l3.02,7.17c2.67,4.51,6.25,8.1,10.76,10.76l7.17,3.02c5.32,1.43,10.63,1.43,15.95,0h0Z" style="fill:#c49a6c;"/><path d="M106.59,75.04h3.33c4.13,.16,7.98-.71,11.56-2.58,3.72-1.21,6.94-3.28,9.65-6.2,2.93-2.72,4.99-5.94,6.2-9.65,1.88-3.58,2.74-7.43,2.58-11.56l-1.07-7.98c-1.43-5.08-4-9.49-7.72-13.24l-6.07-4.69c-4.68-2.71-9.73-4.08-15.14-4.1h-3.33c-4.13-.16-7.98,.71-11.56,2.58-3.72,1.21-6.94,3.28-9.65,6.2-2.93,2.72-4.99,5.94-6.2,9.65-1.88,3.58-2.74,7.43-2.58,11.56l1.07,7.98c1.43,5.08,4,9.49,7.72,13.24l6.07,4.69c4.68,2.71,9.73,4.08,15.14,4.1h0Z" style="fill:#c49a6c;"/><path d="M118.92,74.98l6.33,.33c4.13,.16,7.98-.71,11.56-2.58,3.72-1.21,6.94-3.28,9.65-6.2,2.93-2.72,4.99-5.94,6.2-9.65,1.88-3.58,2.74-7.43,2.58-11.56l-1.07-7.98c-1.43-5.08-4-9.49-7.72-13.24l-6.07-4.69c-4.68-2.71-9.73-4.08-15.14-4.1l-6.33-.33c-4.13-.16-7.98,.71-11.56,2.58-3.72,1.21-6.94,3.28-9.65,6.2-2.93,2.72-4.99,5.94-6.2,9.65-1.88,3.58-2.74,7.43-2.58,11.56l1.07,7.98c1.43,5.08,4,9.49,7.72,13.24l6.07,4.69c4.68,2.71,9.73,4.08,15.14,4.1h0Z" style="fill:#c49a6c;"/><path d="M120.94,74.63l1.67,.67c3.99,1.25,7.98,1.43,11.96,.54,3.99-.18,7.71-1.37,11.15-3.56,3.5-1.89,6.3-4.46,8.42-7.73,2.65-2.9,4.44-6.3,5.37-10.2l1.07-7.98c-.02-5.42-1.38-10.46-4.1-15.14l-4.69-6.07c-3.74-3.72-8.16-6.29-13.24-7.72l-1.67-.67c-3.99-1.25-7.98-1.43-11.96-.54-3.99,.18-7.71,1.37-11.15,3.56-3.5,1.89-6.3,4.46-8.42,7.73-2.65,2.9-4.44,6.3-5.37,10.2l-1.07,7.98c.02,5.42,1.38,10.46,4.1,15.14l4.69,6.07c3.74,3.72,8.16,6.29,13.24,7.72h0Z" style="fill:#c49a6c;"/><path d="M120.11,74.27l2,1.33c3.44,2.19,7.16,3.38,11.15,3.56,3.99,.89,7.98,.71,11.96-.54,3.9-.93,7.3-2.72,10.2-5.37,3.27-2.12,5.84-4.92,7.73-8.42l3.02-7.17c1.43-5.32,1.43-10.63,0-15.95l-3.02-7.17c-2.67-4.51-6.25-8.1-10.76-10.76l-2-1.33c-3.44-2.19-7.16-3.38-11.15-3.56-3.99-.89-7.98-.71-11.96,.54-3.9,.93-7.3,2.72-10.2,5.37-3.27,2.12-5.84,4.92-7.73,8.42l-3.02,7.17c-1.43,5.32-1.43,10.63,0,15.95l3.02,7.17c2.67,4.51,6.25,8.1,10.76,10.76h0Z" style="fill:#c49a6c;"/><path d="M121.37,74.25l5,4.33c2.72,2.93,5.94,4.99,9.65,6.2,3.58,1.88,7.43,2.74,11.56,2.58,4.13,.16,7.98-.71,11.56-2.58,3.72-1.21,6.94-3.28,9.65-6.2l4.69-6.07c2.71-4.68,4.08-9.73,4.1-15.14l-1.07-7.98c-1.43-5.08-4-9.49-7.72-13.24l-5-4.33c-2.72-2.93-5.94-4.99-9.65-6.2-3.58-1.88-7.43-2.74-11.56-2.58-4.13-.16-7.98,.71-11.56,2.58-3.72,1.21-6.94,3.28-9.65,6.2l-4.69,6.07c-2.71,4.68-4.08,9.73-4.1,15.14l1.07,7.98c1.43,5.08,4,9.49,7.72,13.24h0Z" style="fill:#c49a6c;"/><path d="M128.11,78.47l1.64,3.68c1.89,3.5,4.46,6.3,7.73,8.42,2.9,2.65,6.3,4.44,10.2,5.37,3.99,1.25,7.98,1.43,11.96,.54,3.99-.18,7.71-1.37,11.15-3.56l6.07-4.69c3.72-3.74,6.29-8.16,7.72-13.24l1.07-7.98c-.02-5.42-1.38-10.46-4.1-15.14l-1.64-3.68c-1.89-3.5-4.46-6.3-7.73-8.42-2.9-2.65-6.3-4.44-10.2-5.37-3.99-1.25-7.98-1.43-11.96-.54-3.99,.18-7.71,1.37-11.15,3.56l-6.07,4.69c-3.72,3.74-6.29,8.16-7.72,13.24l-1.07,7.98c.02,5.42,1.38,10.46,4.1,15.14h0Z" style="fill:#c49a6c;"/><path d="M144.73,97.7l5,2.67c3.44,2.19,7.16,3.38,11.15,3.56,3.99,.89,7.98,.71,11.96-.54,3.9-.93,7.3-2.72,10.2-5.37,3.27-2.12,5.84-4.92,7.73-8.42l3.02-7.17c1.43-5.32,1.43-10.63,0-15.95l-3.02-7.17c-2.67-4.51-6.25-8.1-10.76-10.76l-5-2.67c-3.44-2.19-7.16-3.38-11.15-3.56-3.99-.89-7.98-.71-11.96,.54-3.9,.93-7.3,2.72-10.2,5.37-3.27,2.12-5.84,4.92-7.73,8.42l-3.02,7.17c-1.43,5.32-1.43,10.63,0,15.95l3.02,7.17c2.67,4.51,6.25,8.1,10.76,10.76h0Z" style="fill:#c49a6c;"/><path d="M154.52,101.13c2.6,1.36,5.33,2.52,8.11,3.43,.36,.12,.73,.2,1.11,.25,2.42,.36,5.65,.82,8.08,1.08,.11,.01,.22,.02,.32,.03,.18,.01,.36,.02,.54,.01,3.02-.05,6.04-.66,9-1.17,.36-.06,.71-.15,1.05-.27,2.77-.95,5.52-2.06,8.11-3.43,.32-.17,.62-.37,.91-.59,.49-.37,4.52-3.24,6.44-5.01,.15-.13,.28-.28,.42-.43,2.93-2.72,4.99-5.94,6.2-9.65,1.88-3.58,2.74-7.43,2.58-11.56,.16-4.13-.71-7.98-2.58-11.56-1.21-3.72-3.28-6.94-6.2-9.65l-6.07-4.69c-4.68-2.71-9.73-4.08-15.14-4.1l-7.98,1.07c-5.08,1.43-9.49,4-13.24,7.72-.24,.27-.5,.52-.79,.74l6.07-4.69c-.43,.33-.9,.6-1.4,.82l7.17-3.02c-.57,.24-1.16,.4-1.78,.48l7.98-1.07c-.58,.07-1.15,.07-1.73,0l7.98,1.07c-.54-.08-1.06-.21-1.56-.42l7.17,3.02c-.17-.07-.33-.15-.49-.23-3.44-2.19-7.16-3.38-11.15-3.56-3.99-.89-7.98-.71-11.96,.54-3.9,.93-7.3,2.72-10.2,5.37-3.27,2.12-5.84,4.92-7.73,8.42l-3.02,7.17c-1.43,5.32-1.43,10.63,0,15.95l3.02,7.17c2.67,4.51,6.25,8.1,10.76,10.76h0Z" style="fill:#c49a6c;"/><path d="M178.59,102.37h2c4.13,.16,7.98-.71,11.56-2.58,3.72-1.21,6.94-3.28,9.65-6.2,2.93-2.72,4.99-5.94,6.2-9.65,1.88-3.58,2.74-7.43,2.58-11.56l-1.07-7.98c-1.43-5.08-4-9.49-7.72-13.24l-6.07-4.69c-4.68-2.71-9.73-4.08-15.14-4.1h-2c-4.13-.16-7.98,.71-11.56,2.58-3.72,1.21-6.94,3.28-9.65,6.2-2.93,2.72-4.99,5.94-6.2,9.65-1.88,3.58-2.74,7.43-2.58,11.56l1.07,7.98c1.43,5.08,4,9.49,7.72,13.24l6.07,4.69c4.68,2.71,9.73,4.08,15.14,4.1h0Z" style="fill:#c49a6c;"/><path d="M186.59,103.7c1.93-.15,3.85-.1,5.77,.15l-7.98-1.07c2.37,.32,4.68,.94,6.9,1.85,3.99,1.25,7.98,1.43,11.96,.54,3.99-.18,7.71-1.37,11.15-3.56,3.5-1.89,6.3-4.46,8.42-7.73,2.65-2.9,4.44-6.3,5.37-10.2l1.07-7.98c-.02-5.42-1.38-10.46-4.1-15.14l-4.69-6.07c-3.74-3.72-8.16-6.29-13.24-7.72-2.03-.84-4.15-1.44-6.33-1.77-4.63-.71-9.55-1.67-14.31-1.3-4.13-.16-7.98,.71-11.56,2.58-3.72,1.21-6.94,3.28-9.65,6.2-2.93,2.72-4.99,5.94-6.2,9.65-1.88,3.58-2.74,7.43-2.58,11.56l1.07,7.98c1.43,5.08,4,9.49,7.72,13.24l6.07,4.69c4.68,2.71,9.73,4.08,15.14,4.1h0Z" style="fill:#c49a6c;"/><path d="M194.3,105.57l2.68,.98c3.99,1.25,7.98,1.43,11.96,.54,3.99-.18,7.71-1.37,11.15-3.56,3.5-1.89,6.3-4.46,8.42-7.73,2.65-2.9,4.44-6.3,5.37-10.2l1.07-7.98c-.02-5.42-1.38-10.46-4.1-15.14l-4.69-6.07c-3.74-3.72-8.16-6.29-13.24-7.72l-2.68-.98c-3.99-1.25-7.98-1.43-11.96-.54-3.99,.18-7.71,1.37-11.15,3.56-3.5,1.89-6.3,4.46-8.42,7.73-2.65,2.9-4.44,6.3-5.37,10.2l-1.07,7.98c.02,5.42,1.38,10.46,4.1,15.14l4.69,6.07c3.74,3.72,8.16,6.29,13.24,7.72h0Z" style="fill:#c49a6c;"/><path d="M203.29,108.61l7,2.66c3.99,1.25,7.98,1.43,11.96,.54,3.99-.18,7.71-1.37,11.15-3.56,3.5-1.89,6.3-4.46,8.42-7.73,2.65-2.9,4.44-6.3,5.37-10.2l1.07-7.98c-.02-5.42-1.38-10.46-4.1-15.14l-4.69-6.07c-3.74-3.72-8.16-6.29-13.24-7.72l-7-2.66c-3.99-1.25-7.98-1.43-11.96-.54-3.99,.18-7.71,1.37-11.15,3.56-3.5,1.89-6.3,4.46-8.42,7.73-2.65,2.9-4.44,6.3-5.37,10.2l-1.07,7.98c.02,5.42,1.38,10.46,4.1,15.14l4.69,6.07c3.74,3.72,8.16,6.29,13.24,7.72h0Z" style="fill:#c49a6c;"/><path d="M213.63,112.24l2.33,.67c3.99,1.25,7.98,1.43,11.96,.54,3.99-.18,7.71-1.37,11.15-3.56,3.5-1.89,6.3-4.46,8.42-7.73,2.65-2.9,4.44-6.3,5.37-10.2l1.07-7.98c-.02-5.42-1.38-10.46-4.1-15.14l-4.69-6.07c-3.74-3.72-8.16-6.29-13.24-7.72l-2.33-.67c-3.99-1.25-7.98-1.43-11.96-.54-3.99,.18-7.71,1.37-11.15,3.56-3.5,1.89-6.3,4.46-8.42,7.73-2.65,2.9-4.44,6.3-5.37,10.2l-1.07,7.98c.02,5.42,1.38,10.46,4.1,15.14l4.69,6.07c3.74,3.72,8.16,6.29,13.24,7.72h0Z" style="fill:#c49a6c;"/><path d="M205.35,108.42c8.69,5.27,17.31,10.68,25.36,16.9l-6.07-4.69c6.97,5.41,13.46,11.44,18.9,18.41l-4.69-6.07c4.12,5.35,7.48,11.18,10.13,17.39l-3.02-7.17c6.08,14.43,8.37,30.05,10.49,45.45l3.02,7.17c1.89,3.5,4.46,6.3,7.73,8.42,1.87,1.86,4.08,3.14,6.62,3.86,3.58,1.88,7.43,2.74,11.56,2.58l7.98-1.07,7.17-3.02c3.5-1.89,6.3-4.46,8.42-7.73,2.65-2.9,4.44-6.3,5.37-10.2,.4-1.1,.72-2.23,.94-3.38,.58-3.05,.92-6.18,1.28-9.26,.08-.72,.15-1.43,.18-2.15,.05-1.16,.01-2.32-.09-3.47-.32-3.68-.82-7.39-1.49-11.02-.46-2.51-1.19-4.96-2.05-7.36-1.68-4.65-3.67-9.2-5.73-13.7-4.42-9.64-9.38-19.06-14.43-28.38-2.53-4.67-5.12-9.3-7.76-13.9-2.47-4.3-4.94-8.61-7.88-12.61s-5.74-7.87-9.11-11.33-7.2-6.16-10.91-8.96-7.71-4.98-11.93-6.8c-4.71-2.03-9.39-4.1-14.3-5.6-2.8-.86-5.65-1.56-8.52-2.17-5.82-1.23-11.73-2.05-17.62-2.87-3.99-1.25-7.98-1.43-11.96-.54-3.99,.18-7.71,1.37-11.15,3.56-3.5,1.89-6.3,4.46-8.42,7.73-2.65,2.9-4.44,6.3-5.37,10.2l-1.07,7.98c.02,5.42,1.38,10.46,4.1,15.14l4.69,6.07c3.74,3.72,8.16,6.29,13.24,7.72,11.28,1.57,22.7,3.18,33.28,7.62l-7.17-3.02c4.36,1.86,8.5,4.16,12.26,7.05l-6.07-4.69c3.06,2.39,5.75,5.15,8.13,8.22l-4.69-6.07c5.17,6.76,9.19,14.44,13.31,21.86s8.43,15.56,12.39,23.46c2.21,4.4,4.44,8.8,6.37,13.33l-3.02-7.17c1.75,4.16,3.22,8.44,3.83,12.92l-1.07-7.98c.29,2.31,.33,4.61,.05,6.92l1.07-7.98c-.23,1.6-.6,3.14-1.15,4.66h57.86c-1.15-8.33-2.34-16.66-4.15-24.88-2.33-10.6-6-20.64-10.59-30.48-1.76-3.78-3.81-7.42-6.16-10.87-2.47-3.62-5.23-7.06-7.94-10.49-1.21-1.54-2.49-3.03-3.8-4.48-6.94-7.64-15.18-13.98-23.45-20.1-7.24-5.35-14.89-10.12-22.58-14.79-3.44-2.19-7.16-3.38-11.15-3.56-3.99-.89-7.98-.71-11.96,.54-3.9,.93-7.3,2.72-10.2,5.37-3.27,2.12-5.84,4.92-7.73,8.42l-3.02,7.17c-1.43,5.32-1.43,10.63,0,15.95l3.02,7.17c2.67,4.51,6.25,8.1,10.76,10.76h0Z" style="fill:#c49a6c;"/><path d="M184.67,110.68c3.03,3.39,5.93,6.89,8.71,10.48l-4.69-6.07c10.15,13.17,18.59,27.61,25.08,42.91l-3.02-7.17c2.21,5.23,4.2,10.56,5.94,15.97,1.2,3.72,2.51,7.54,3.05,11.42l-1.07-7.98c.14,1.14,.21,2.27,.06,3.41l1.07-7.98c-.08,.53-.21,1.03-.41,1.53l3.02-7.17c-.13,.28-.28,.54-.46,.8l4.69-6.07c-.19,.24-.4,.45-.64,.64l6.07-4.69c-.27,.19-.54,.34-.84,.47l7.17-3.02c-.35,.13-.7,.21-1.06,.27l7.98-1.07c-.74,.09-1.46,.05-2.2-.04l7.98,1.07c-2.8-.44-5.46-1.49-8.05-2.58l7.17,3.02c-5.47-2.32-10.84-5.08-16.57-6.7-3.99-1.13-8.25-1.6-12.36-1.87-.72-.05-1.44-.05-2.16,.02-3.08,.26-6.64,.42-9.72,1.44-7.09,2.35-10.02,4.24-15.64,9.02-2.68,2.28-4.81,5.29-6.59,8.29-3.59,6.05-5.88,14.22-5.51,21.28,.19,3.62,.49,7.54,1.65,11.06s2.63,7.48,4.83,10.65c1.81,2.6,4.36,6.3,7.05,8.66,2.91,2.56,6.07,5.2,9.54,7.08s7.08,3.31,10.75,4.59c1.45,.51,2.94,.89,4.45,1.17,5.99,1.12,12.2,1.83,18.31,2.06,4.45,.17,8.91,.09,13.37,.07,3.32-.02,6.77-.21,10.07,.19l-7.98-1.07c.87,.13,1.72,.32,2.53,.66l-7.17-3.02c.42,.2,.81,.43,1.18,.71l-6.07-4.69c.28,.25,.53,.5,.76,.8l-4.69-6.07c.17,.25,.3,.49,.44,.75l-3.02-7.17c.17,.4,.28,.79,.35,1.22l-1.07-7.98c.02,.3,.02,.57,0,.87l1.07-7.98c-.05,.28-.12,.53-.22,.79l3.02-7.17c-.16,.34-.34,.65-.56,.95l4.69-6.07c-.31,.38-.66,.71-1.04,1.02l6.07-4.69c-.81,.62-1.69,1.09-2.62,1.5l7.17-3.02c-.35,.15-.69,.28-1.05,.41-3.9,.93-7.3,2.72-10.2,5.37-3.27,2.12-5.84,4.92-7.73,8.42l-3.02,7.17c-1.25,3.99-1.43,7.98-.54,11.96,0,2.71,.69,5.23,2.05,7.57,1.21,3.72,3.28,6.94,6.2,9.65l6.07,4.69c4.68,2.71,9.73,4.08,15.14,4.1,2.79-.07,5.58-.04,8.37,.11,4.13,.16,7.98-.71,11.56-2.58,3.72-1.21,6.94-3.28,9.65-6.2,2.93-2.72,4.99-5.94,6.2-9.65,1.88-3.58,2.74-7.43,2.58-11.56l-1.07-7.98c-1.43-5.08-4-9.49-7.72-13.24l-6.07-4.69c-4.68-2.71-9.73-4.08-15.14-4.1-2.79-.15-5.58-.18-8.37-.11,2.66,19.64,5.32,39.29,7.98,58.93,2.91-1.07,5.83-2.29,8.62-3.62,.64-.31,1.26-.65,1.85-1.05,.12-.09,.24-.18,.36-.27,1.9-1.39,4.57-3.31,6.3-4.88,.22-.2,.42-.4,.62-.61,.87-.93,2.61-3.36,2.53-3.25s1.95-2.29,2.59-3.38c.07-.12,.14-.24,.21-.36l.11-.25,3.02-7.17c.51-1.56,.52-3.01,.75-4.78s.56-3.1,.55-4.7c0-.95-.88-7.15-1.08-8.12-.04-.21-.07-.41-.13-.62-.05-.16-.11-.31-.17-.46-.46-1.35-2.44-6.21-3.15-7.44-.07-.13-.14-.26-.21-.38-.93-1.62-3.63-4.85-4.85-6.31-.18-.21-.35-.42-.55-.62-.87-.87-3.94-3.06-3.24-2.52-.25-.19-2.26-1.89-3.37-2.59-.28-.18-.55-.32-.85-.47-2.03-1.01-5.31-2.36-7.43-3.13-.13-.05-.27-.1-.4-.14-.28-.09-.56-.17-.84-.23-.34-.08-.68-.13-1.03-.18-2.88-.44-5.82-.9-8.73-1.15-1.29-.11-2.58-.08-3.87-.09-4.2-.03-8.4,.02-12.61,.01-4.91,0-9.83-.15-14.7-.81l7.98,1.07c-2.73-.39-5.4-1.04-7.95-2.11l7.17,3.02c-1.63-.71-3.16-1.57-4.57-2.64l6.07,4.69c-1.11-.87-2.09-1.85-2.96-2.97l4.69,6.07c-.68-.93-1.26-1.91-1.72-2.97l3.02,7.17c-.39-.98-.65-1.99-.8-3.04l1.07,7.98c-.12-1.04-.11-2.07,.02-3.11l-1.07,7.98c.14-.92,.37-1.8,.71-2.67-1.01,2.39-2.02,4.78-3.02,7.17,.32-.75,.72-1.44,1.2-2.1l-4.69,6.07c.45-.56,.94-1.06,1.51-1.5l-6.07,4.69c.52-.38,1.06-.69,1.66-.95l-7.17,3.02c.64-.25,1.29-.42,1.97-.53l-7.98,1.07c1.22-.15,2.45-.08,3.67,.07l-7.98-1.07c3.02,.44,5.88,1.51,8.68,2.68l-7.17-3.02c4.34,1.83,8.63,3.77,13.01,5.49,1.93,.75,3.9,1.41,5.95,1.76,2.42,.41,6.68,1.32,9.85,1.19,.16,0,.33-.03,.49-.05,1.95-.16,6.33-.68,8.21-1.11,.28-.06,.55-.15,.83-.23,.33-.1,5.37-2.04,7.7-3.28,.11-.06,.21-.14,.31-.21,.98-.62,5.41-4.03,6.22-4.81,2.14-2.07,3.95-4.51,5.49-7.06,.06-.11,.11-.23,.17-.33,.36-.7,2.81-6.54,3.06-7.25,.09-.25,.18-.48,.24-.74,.78-3.07,1.1-6.27,1.28-9.42,.03-.57,.01-1.14-.03-1.71-.25-3.22-.76-6.46-1.28-9.65-.47-2.87-1.38-5.69-2.23-8.46-3.35-10.88-7.71-21.49-12.52-31.79-3.75-8.04-8.06-15.83-12.88-23.28-2.74-4.23-5.64-8.36-8.7-12.37-4.53-5.93-9.08-11.82-14.05-17.4-2.72-2.93-5.94-4.99-9.65-6.2-3.58-1.88-7.43-2.74-11.56-2.58-4.13-.16-7.98,.71-11.56,2.58-3.72,1.21-6.94,3.28-9.65,6.2l-4.69,6.07c-2.71,4.68-4.08,9.73-4.1,15.14l1.07,7.98c1.43,5.08,4,9.49,7.72,13.24h0Z" style="fill:#c49a6c;"/><path d="M303.59,205.7c4.13,.16,7.98-.71,11.56-2.58,3.72-1.21,6.94-3.28,9.65-6.2,2.93-2.72,4.99-5.94,6.2-9.65,1.88-3.58,2.74-7.43,2.58-11.56l-1.07-7.98c-1.43-5.08-4-9.49-7.72-13.24l-6.07-4.69c-4.68-2.71-9.73-4.08-15.14-4.1-4.13-.16-7.98,.71-11.56,2.58-3.72,1.21-6.94,3.28-9.65,6.2-2.93,2.72-4.99,5.94-6.2,9.65-1.88,3.58-2.74,7.43-2.58,11.56l1.07,7.98c1.43,5.08,4,9.49,7.72,13.24l6.07,4.69c4.68,2.71,9.73,4.08,15.14,4.1h0Z" style="fill:#c49a6c;"/><path d="M298.59,196.7c4.13,.16,7.98-.71,11.56-2.58,3.72-1.21,6.94-3.28,9.65-6.2,2.93-2.72,4.99-5.94,6.2-9.65,1.88-3.58,2.74-7.43,2.58-11.56l-1.07-7.98c-1.43-5.08-4-9.49-7.72-13.24l-6.07-4.69c-4.68-2.71-9.73-4.08-15.14-4.1-4.13-.16-7.98,.71-11.56,2.58-3.72,1.21-6.94,3.28-9.65,6.2-2.93,2.72-4.99,5.94-6.2,9.65-1.88,3.58-2.74,7.43-2.58,11.56l1.07,7.98c1.43,5.08,4,9.49,7.72,13.24l6.07,4.69c4.68,2.71,9.73,4.08,15.14,4.1h0Z" style="fill:#c49a6c;"/><path d="M272.29,182.06c7.65,14.06,15.31,28.11,22.96,42.17,1.89,3.5,4.46,6.3,7.73,8.42,2.9,2.65,6.3,4.44,10.2,5.37l7.98,1.07c4.13,.16,7.98-.71,11.56-2.58,2.54-.71,4.75-2,6.62-3.86,3.27-2.12,5.84-4.92,7.73-8.42l3.02-7.17c1.43-5.32,1.43-10.63,0-15.95-2.16-8.51-5.57-16.76-9.35-24.67-2.75-5.74-6.09-11.17-9.95-16.24l-47.12,36.35c.92,1.08,1.81,2.17,2.68,3.29l-4.69-6.07c4.67,6.06,8.55,12.68,11.55,19.72l-3.02-7.17c2.2,5.22,3.91,10.62,5.09,16.16,.93,3.9,2.72,7.3,5.37,10.2,2.12,3.27,4.92,5.84,8.42,7.73,3.44,2.19,7.16,3.38,11.15,3.56,3.99,.89,7.98,.71,11.96-.54l7.17-3.02c4.51-2.67,8.1-6.25,10.76-10.76l3.02-7.17c1.43-5.32,1.43-10.63,0-15.95-.8-3.74-1.83-7.42-3.1-11.02-2.03-5.77-4.43-11.45-7.14-16.94-4.39-8.89-10.39-16.93-16.8-24.45-2.72-2.93-5.94-4.99-9.65-6.2-3.58-1.88-7.43-2.74-11.56-2.58l-7.98,1.07c-3.9,.93-7.3,2.72-10.2,5.37-2.25,1.33-4.05,3.13-5.38,5.38-2.65,2.9-4.44,6.3-5.37,10.2l-1.07,7.98c.02,5.42,1.38,10.46,4.1,15.14,4.73,6.22,8.66,13,11.73,20.19l-3.02-7.17c1.85,4.4,3.37,8.92,4.55,13.55,18.28-7.71,36.55-15.41,54.83-23.12-7.65-14.06-15.31-28.11-22.96-42.17-1.89-3.5-4.46-6.3-7.73-8.42-2.9-2.65-6.3-4.44-10.2-5.37-3.99-1.25-7.98-1.43-11.96-.54-3.99,.18-7.71,1.37-11.15,3.56l-6.07,4.69c-3.72,3.74-6.29,8.16-7.72,13.24l-1.07,7.98c.02,5.42,1.38,10.46,4.1,15.14h0Z" style="fill:#c49a6c;"/><path d="M227.92,235.37c4.13,.16,7.98-.71,11.56-2.58,3.72-1.21,6.94-3.28,9.65-6.2,2.93-2.72,4.99-5.94,6.2-9.65,1.88-3.58,2.74-7.43,2.58-11.56l-1.07-7.98c-1.43-5.08-4-9.49-7.72-13.24l-6.07-4.69c-4.68-2.71-9.73-4.08-15.14-4.1-4.13-.16-7.98,.71-11.56,2.58-3.72,1.21-6.94,3.28-9.65,6.2-2.93,2.72-4.99,5.94-6.2,9.65-1.88,3.58-2.74,7.43-2.58,11.56l1.07,7.98c1.43,5.08,4,9.49,7.72,13.24l6.07,4.69c4.68,2.71,9.73,4.08,15.14,4.1h0Z" style="fill:#c49a6c;"/><path d="M230.92,235.7c4.13,.16,7.98-.71,11.56-2.58,3.72-1.21,6.94-3.28,9.65-6.2,2.93-2.72,4.99-5.94,6.2-9.65,1.88-3.58,2.74-7.43,2.58-11.56l-1.07-7.98c-1.43-5.08-4-9.49-7.72-13.24l-6.07-4.69c-4.68-2.71-9.73-4.08-15.14-4.1-4.13-.16-7.98,.71-11.56,2.58-3.72,1.21-6.94,3.28-9.65,6.2-2.93,2.72-4.99,5.94-6.2,9.65-1.88,3.58-2.74,7.43-2.58,11.56l1.07,7.98c1.43,5.08,4,9.49,7.72,13.24l6.07,4.69c4.68,2.71,9.73,4.08,15.14,4.1h0Z" style="fill:#c49a6c;"/><path d="M200.92,233.37c4.13,.16,7.98-.71,11.56-2.58,3.72-1.21,6.94-3.28,9.65-6.2,2.93-2.72,4.99-5.94,6.2-9.65,1.88-3.58,2.74-7.43,2.58-11.56l-1.07-7.98c-1.43-5.08-4-9.49-7.72-13.24l-6.07-4.69c-4.68-2.71-9.73-4.08-15.14-4.1-4.13-.16-7.98,.71-11.56,2.58-3.72,1.21-6.94,3.28-9.65,6.2-2.93,2.72-4.99,5.94-6.2,9.65-1.88,3.58-2.74,7.43-2.58,11.56l1.07,7.98c1.43,5.08,4,9.49,7.72,13.24l6.07,4.69c4.68,2.71,9.73,4.08,15.14,4.1h0Z" style="fill:#c49a6c;"/><path d="M176.99,184.78l-1.65,1.68c-2.93,2.72-4.99,5.94-6.2,9.65-1.88,3.58-2.74,7.43-2.58,11.56-.16,4.13,.71,7.98,2.58,11.56,1.21,3.72,3.28,6.94,6.2,9.65l6.07,4.69c4.68,2.71,9.73,4.08,15.14,4.1l7.98-1.07c5.08-1.43,9.49-4,13.24-7.72l1.65-1.68c2.93-2.72,4.99-5.94,6.2-9.65,1.88-3.58,2.74-7.43,2.58-11.56,.16-4.13-.71-7.98-2.58-11.56-1.21-3.72-3.28-6.94-6.2-9.65l-6.07-4.69c-4.68-2.71-9.73-4.08-15.14-4.1l-7.98,1.07c-5.08,1.43-9.49,4-13.24,7.72h0Z" style="fill:#c49a6c;"/><path d="M196.59,239.04c4.13,.16,7.98-.71,11.56-2.58,3.72-1.21,6.94-3.28,9.65-6.2,2.93-2.72,4.99-5.94,6.2-9.65,1.88-3.58,2.74-7.43,2.58-11.56l-1.07-7.98c-1.43-5.08-4-9.49-7.72-13.24l-6.07-4.69c-4.68-2.71-9.73-4.08-15.14-4.1-4.13-.16-7.98,.71-11.56,2.58-3.72,1.21-6.94,3.28-9.65,6.2-2.93,2.72-4.99,5.94-6.2,9.65-1.88,3.58-2.74,7.43-2.58,11.56l1.07,7.98c1.43,5.08,4,9.49,7.72,13.24l6.07,4.69c4.68,2.71,9.73,4.08,15.14,4.1h0Z" style="fill:#c49a6c;"/><path d="M186.29,182.82l-1,.33c-3.9,.93-7.3,2.72-10.2,5.37-3.27,2.12-5.84,4.92-7.73,8.42-2.19,3.44-3.38,7.16-3.56,11.15-.89,3.99-.71,7.98,.54,11.96l3.02,7.17c2.67,4.51,6.25,8.1,10.76,10.76l7.17,3.02c5.32,1.43,10.63,1.43,15.95,0l1-.33c3.9-.93,7.3-2.72,10.2-5.37,3.27-2.12,5.84-4.92,7.73-8.42,2.19-3.44,3.38-7.16,3.56-11.15,.89-3.99,.71-7.98-.54-11.96l-3.02-7.17c-2.67-4.51-6.25-8.1-10.76-10.76l-7.17-3.02c-5.32-1.43-10.63-1.43-15.95,0h0Z" style="fill:#c49a6c;"/><path d="M189.25,182.04l-3.67,.33c-4.13-.16-7.98,.71-11.56,2.58-3.72,1.21-6.94,3.28-9.65,6.2-2.93,2.72-4.99,5.94-6.2,9.65-1.88,3.58-2.74,7.43-2.58,11.56l1.07,7.98c1.43,5.08,4,9.49,7.72,13.24l6.07,4.69c4.68,2.71,9.73,4.08,15.14,4.1l3.67-.33c4.13,.16,7.98-.71,11.56-2.58,3.72-1.21,6.94-3.28,9.65-6.2,2.93-2.72,4.99-5.94,6.2-9.65,1.88-3.58,2.74-7.43,2.58-11.56l-1.07-7.98c-1.43-5.08-4-9.49-7.72-13.24l-6.07-4.69c-4.68-2.71-9.73-4.08-15.14-4.1h0Z" style="fill:#c49a6c;"/><path d="M180.25,182.7h-2c-4.13-.16-7.98,.71-11.56,2.58-3.72,1.21-6.94,3.28-9.65,6.2-2.93,2.72-4.99,5.94-6.2,9.65-1.88,3.58-2.74,7.43-2.58,11.56l1.07,7.98c1.43,5.08,4,9.49,7.72,13.24l6.07,4.69c4.68,2.71,9.73,4.08,15.14,4.1h2c4.13,.16,7.98-.71,11.56-2.58,3.72-1.21,6.94-3.28,9.65-6.2,2.93-2.72,4.99-5.94,6.2-9.65,1.88-3.58,2.74-7.43,2.58-11.56l-1.07-7.98c-1.43-5.08-4-9.49-7.72-13.24l-6.07-4.69c-4.68-2.71-9.73-4.08-15.14-4.1h0Z" style="fill:#c49a6c;"/><path d="M165.94,183.77l-3.33,1c-3.9,.93-7.3,2.72-10.2,5.37-3.27,2.12-5.84,4.92-7.73,8.42-2.19,3.44-3.38,7.16-3.56,11.15-.89,3.99-.71,7.98,.54,11.96l3.02,7.17c2.67,4.51,6.25,8.1,10.76,10.76l7.17,3.02c5.32,1.43,10.63,1.43,15.95,0l3.33-1c3.9-.93,7.3-2.72,10.2-5.37,3.27-2.12,5.84-4.92,7.73-8.42,2.19-3.44,3.38-7.16,3.56-11.15,.89-3.99,.71-7.98-.54-11.96l-3.02-7.17c-2.67-4.51-6.25-8.1-10.76-10.76l-7.17-3.02c-5.32-1.43-10.63-1.43-15.95,0h0Z" style="fill:#c49a6c;"/><path d="M151.28,186.11l-2,.67c-3.9,.93-7.3,2.72-10.2,5.37-3.27,2.12-5.84,4.92-7.73,8.42-2.19,3.44-3.38,7.16-3.56,11.15-.89,3.99-.71,7.98,.54,11.96l3.02,7.17c2.67,4.51,6.25,8.1,10.76,10.76l7.17,3.02c5.32,1.43,10.63,1.43,15.95,0l2-.67c3.9-.93,7.3-2.72,10.2-5.37,3.27-2.12,5.84-4.92,7.73-8.42,2.19-3.44,3.38-7.16,3.56-11.15,.89-3.99,.71-7.98-.54-11.96l-3.02-7.17c-2.67-4.51-6.25-8.1-10.76-10.76l-7.17-3.02c-5.32-1.43-10.63-1.43-15.95,0h0Z" style="fill:#c49a6c;"/><path d="M154.25,245.76l16-.25c4.13,.16,7.98-.71,11.56-2.58,3.72-1.21,6.94-3.28,9.65-6.2,2.93-2.72,4.99-5.94,6.2-9.65,1.88-3.58,2.74-7.43,2.58-11.56l-1.07-7.98c-1.43-5.08-4-9.49-7.72-13.24l-6.07-4.69c-4.68-2.71-9.73-4.08-15.14-4.1-5.33,.08-10.67,.16-16,.25-4.13-.16-7.98,.71-11.56,2.58-3.72,1.21-6.94,3.28-9.65,6.2-2.93,2.72-4.99,5.94-6.2,9.65-1.88,3.58-2.74,7.43-2.58,11.56l1.07,7.98c1.43,5.08,4,9.49,7.72,13.24l6.07,4.69c4.68,2.71,9.73,4.08,15.14,4.1h0Z" style="fill:#c49a6c;"/><path d="M194.59,243.98c1.47,.16,2.94,.19,4.41,.07,3.25-.27,6.51-.78,9.72-1.27,.73-.11,1.45-.25,2.18-.4,3.01-.66,5.92-1.7,8.82-2.76,5.97-2.17,11.93-3.98,18.24-4.84l-7.98,1.07c3.29-.43,6.6-.63,9.92-.62,4.13,.16,7.98-.71,11.56-2.58,3.72-1.21,6.94-3.28,9.65-6.2,2.93-2.72,4.99-5.94,6.2-9.65,1.88-3.58,2.74-7.43,2.58-11.56l-1.07-7.98c-1.43-5.08-4-9.49-7.72-13.24l-6.07-4.69c-4.68-2.71-9.73-4.08-15.14-4.1-6.04-.03-11.92,.86-17.9,1.69-3.52,.49-7.01,1.2-10.43,2.18-6.44,1.86-12.55,4.94-19.24,5.88l7.98-1.07c-1.91,.24-3.81,.28-5.73,.07-4.13-.16-7.98,.71-11.56,2.58-3.72,1.21-6.94,3.28-9.65,6.2-2.93,2.72-4.99,5.94-6.2,9.65-1.88,3.58-2.74,7.43-2.58,11.56l1.07,7.98c1.43,5.08,4,9.49,7.72,13.24l6.07,4.69c4.68,2.71,9.73,4.08,15.14,4.1h0Z" style="fill:#c49a6c;"/><path d="M232.11,243.61l.67,.33c3.44,2.19,7.16,3.38,11.15,3.56,3.99,.89,7.98,.71,11.96-.54,3.9-.93,7.3-2.72,10.2-5.37,3.27-2.12,5.84-4.92,7.73-8.42l3.02-7.17c1.43-5.32,1.43-10.63,0-15.95l-3.02-7.17c-2.67-4.51-6.25-8.1-10.76-10.76l-.67-.33c-3.44-2.19-7.16-3.38-11.15-3.56-3.99-.89-7.98-.71-11.96,.54-3.9,.93-7.3,2.72-10.2,5.37-3.27,2.12-5.84,4.92-7.73,8.42l-3.02,7.17c-1.43,5.32-1.43,10.63,0,15.95l3.02,7.17c2.67,4.51,6.25,8.1,10.76,10.76h0Z" style="fill:#c49a6c;"/><path d="M248.25,250.04h1c4.13,.16,7.98-.71,11.56-2.58,3.72-1.21,6.94-3.28,9.65-6.2,2.93-2.72,4.99-5.94,6.2-9.65,1.88-3.58,2.74-7.43,2.58-11.56l-1.07-7.98c-1.43-5.08-4-9.49-7.72-13.24l-6.07-4.69c-4.68-2.71-9.73-4.08-15.14-4.1h-1c-4.13-.16-7.98,.71-11.56,2.58-3.72,1.21-6.94,3.28-9.65,6.2-2.93,2.72-4.99,5.94-6.2,9.65-1.88,3.58-2.74,7.43-2.58,11.56l1.07,7.98c1.43,5.08,4,9.49,7.72,13.24l6.07,4.69c4.68,2.71,9.73,4.08,15.14,4.1h0Z" style="fill:#c49a6c;"/><path d="M269.18,245.89l6.99-3.02c3.5-1.89,6.3-4.46,8.42-7.73,2.65-2.9,4.44-6.3,5.37-10.2,1.25-3.99,1.43-7.98,.54-11.96-.18-3.99-1.37-7.71-3.56-11.15l-4.69-6.07c-3.74-3.72-8.16-6.29-13.24-7.72l-7.98-1.07c-5.42,.02-10.46,1.38-15.14,4.1l-6.99,3.02c-3.5,1.89-6.3,4.46-8.42,7.73-2.65,2.9-4.44,6.3-5.37,10.2-1.25,3.99-1.43,7.98-.54,11.96,.18,3.99,1.37,7.71,3.56,11.15l4.69,6.07c3.74,3.72,8.16,6.29,13.24,7.72,2.66,.36,5.32,.71,7.98,1.07,5.42-.02,10.46-1.38,15.14-4.1h0Z" style="fill:#c49a6c;"/><path d="M269.9,245.3l1.67-.67c3.9-.93,7.3-2.72,10.2-5.37,3.27-2.12,5.84-4.92,7.73-8.42,2.19-3.44,3.38-7.16,3.56-11.15,.89-3.99,.71-7.98-.54-11.96l-3.02-7.17c-2.67-4.51-6.25-8.1-10.76-10.76l-7.17-3.02c-5.32-1.43-10.63-1.43-15.95,0l-1.67,.67c-3.9,.93-7.3,2.72-10.2,5.37-3.27,2.12-5.84,4.92-7.73,8.42-2.19,3.44-3.38,7.16-3.56,11.15-.89,3.99-.71,7.98,.54,11.96l3.02,7.17c2.67,4.51,6.25,8.1,10.76,10.76l7.17,3.02c5.32,1.43,10.63,1.43,15.95,0h0Z" style="fill:#c49a6c;"/><path d="M317.25,230.37h-.67c-2.75-.1-5.32,.47-7.71,1.72-2.48,.81-4.63,2.19-6.44,4.14-1.95,1.81-3.33,3.96-4.14,6.44-1.25,2.38-1.83,4.95-1.72,7.71l.71,5.32c.95,3.39,2.66,6.33,5.14,8.83l4.05,3.13c3.12,1.81,6.48,2.72,10.09,2.73h.67c2.75,.1,5.32-.47,7.71-1.72,2.48-.81,4.63-2.19,6.44-4.14,1.95-1.81,3.33-3.96,4.14-6.44,1.25-2.38,1.83-4.95,1.72-7.71l-.71-5.32c-.95-3.39-2.66-6.33-5.14-8.83l-4.05-3.13c-3.12-1.81-6.48-2.72-10.09-2.73h0Z" style="fill:#c49a6c;"/><path d="M326.83,269.96c8.14-5.08,14.76-11.71,19.99-19.74,2.56-3.93,4.41-8.37,6.05-12.74,1.72-4.6,2.28-9.31,2.9-14.17,.1-2.75-.47-5.32-1.72-7.71-.81-2.48-2.19-4.63-4.14-6.44-1.81-1.95-3.96-3.33-6.44-4.14-2.38-1.25-4.95-1.83-7.71-1.72-5.17,.23-10.54,1.93-14.14,5.86l-3.13,4.05c-1.81,3.12-2.72,6.48-2.73,10.09l-.05,.38,.71-5.32c-.47,3.41-1.38,6.71-2.7,9.89l2.02-4.78c-1.39,3.28-3.18,6.35-5.34,9.19l3.13-4.05c-2.18,2.82-4.69,5.34-7.5,7.54l4.05-3.13c-1.11,.85-2.26,1.64-3.44,2.38-4.35,2.71-7.82,6.96-9.19,11.95-.83,2.66-.95,5.32-.36,7.98,.12,2.66,.91,5.14,2.37,7.44,2.75,4.27,6.85,8.03,11.95,9.19s10.8,.86,15.41-2.02h0Z" style="fill:#c49a6c;"/><path d="M296.19,259.35l-11.02,2.7c4.05,6.96,8.11,13.93,12.16,20.89,3.27-3.92,6.55-7.84,9.82-11.76l1.95-2.53c.91-1.43,1.41-2.98,1.48-4.65,.36-2.66,.02-5.64-1.48-7.97-1.17-1.81-2.68-3.32-4.48-4.48-2.92-1.88-6.38-1.81-9.63-1.26s-6.31,1.89-9.18,3.37c-2.15,1.11-4.15,2.49-6.1,3.92-4.07,2.98-8,6-12.67,8l2.99-1.26c-5.38,2.24-11.11,3.34-16.87,4.12l3.32-.45c-8.99,1.2-18.02,2.09-27.03,3.11s-18.57,2.11-27.85,3.16c-1.72-.06-3.33,.29-4.82,1.08-1.55,.5-2.89,1.37-4.02,2.58-1.9,2.06-3.06,4.39-3.44,7.18s-.02,5.64,1.48,7.97c1.69,2.62,4.3,5.12,7.47,5.74,17.12,3.38,34.68,4.36,52.03,2.39,9.09-1.03,18.1-2.56,26.94-4.91s17.45-5.57,25.88-9.24,16.67-8.16,24.38-13.31c2.72-1.81,4.86-4.26,5.74-7.47,.82-2.99,.45-6.98-1.26-9.63s-4.28-5.02-7.47-5.74-6.84-.6-9.63,1.26c-8.24,5.5-16.99,10.19-26.11,14.05l2.99-1.26c-13.26,5.57-27.21,9.36-41.46,11.3l3.32-.45c-14.11,1.88-28.43,1.93-42.54,.05l3.32,.45c-3.18-.43-6.34-.96-9.49-1.58-1.11,8.18-2.22,16.37-3.32,24.55,13.97-1.59,27.94-3.17,41.91-4.76s29.05-2.36,41.4-10.06c5.21-3.25,9.69-7.66,15.39-10.08l-2.99,1.26c1.4-.57,2.83-.99,4.33-1.24-4.05-6.96-8.11-13.93-12.16-20.89-3.27,3.92-6.55,7.84-9.82,11.76l-1.95,2.53c-.91,1.43-1.41,2.98-1.48,4.65-.36,2.66-.02,5.64,1.48,7.97,3.07,4.77,8.54,7.11,14.12,5.74l11.02-2.7c3-.73,5.93-3.11,7.47-5.74s2.23-6.63,1.26-9.63c-2.13-6.6-8.57-10.4-15.38-8.73h0Z" style="fill:#c49a6c;"/><path d="M152.29,222.15c-8.29,.51-16.12,2.67-23.44,6.62-3.54,1.91-6.8,4.36-9.85,6.97s-5.67,5.84-8.14,9.15c-1.13,1.95-1.7,4.05-1.71,6.31-.06,1.72,.29,3.33,1.08,4.82,1.45,3.43,4.34,6.38,8.1,7.24,4.73,1.08,9.06,1,13.79,.04,3.67-.74,7.22-2.35,10.54-4.04,4.82-2.45,9.18-5.73,14.17-7.86l-2.99,1.26c1.96-.8,3.95-1.4,6.05-1.7l-3.32,.45,.42-.05-3.32-24.55c-2.28,.82-4.56,1.63-6.84,2.45-3.83,1.37-7.64,2.67-10.67,5.52-4.14,3.9-6.11,10.01-4.61,15.57s5.78,9.48,11.11,10.73c4.59,1.08,9.62,.23,13.46-2.55,2.63-1.91,4.88-4.11,7.21-6.34,3.53-3.37,7.06-6.74,10.58-10.12,2.28-2.18,3.66-5.71,3.66-8.84s-1.36-6.73-3.66-8.84-5.51-3.81-8.84-3.66-6.37,1.31-8.84,3.66c-2.59,2.47-5.17,4.95-7.76,7.42s-4.86,4.92-7.51,7.08l2.53-1.95c-.54,.41-1.09,.75-1.71,1.03l2.99-1.26c-.34,.12-.64,.21-1,.27l3.32-.45c-.33,.03-.63,.04-.96,.02l3.32,.45c-.33-.05-.61-.11-.92-.22l2.99,1.26c-.3-.13-.53-.27-.8-.46l2.53,1.95c-.16-.13-.3-.28-.42-.44l1.95,2.53c-.13-.18-.23-.37-.31-.58l1.26,2.99c-.08-.21-.12-.43-.14-.65l.45,3.32c-.02-.23,0-.45,.03-.67l-.45,3.32c.07-.36,.17-.65,.31-.99l-1.26,2.99c.1-.21,.22-.41,.36-.61l-1.95,2.53c.24-.31,.47-.55,.76-.81l-2.53,1.95c.56-.43,1.14-.76,1.77-1.05l-2.99,1.26c3.33-1.4,6.82-2.48,10.22-3.7,2.97-1.06,5.93-2.84,7.47-5.74,1.33-2.52,1.87-5.13,1.48-7.97-.35-2.62-1.43-5.33-3.44-7.18-2.28-2.09-5.62-4.04-8.84-3.66s-6.34,.82-9.41,2.03c-2.87,1.13-5.64,2.38-8.31,3.91-3.95,2.25-7.7,4.83-11.9,6.61l2.99-1.26c-2.07,.85-4.18,1.49-6.4,1.79l3.32-.45c-1.31,.14-2.6,.16-3.9,.02l3.32,.45c-.58-.08-1.16-.18-1.73-.31l7.47,18.36c.15-.21,.31-.41,.47-.62l-1.95,2.53c2.14-2.75,4.62-5.2,7.37-7.34l-2.53,1.95c2.88-2.19,6-4.01,9.33-5.43l-2.99,1.26c3.34-1.39,6.82-2.36,10.4-2.86l-3.32,.45c1.02-.13,2.05-.23,3.08-.3,3.33-.21,6.43-1.25,8.84-3.66,2.17-2.17,3.8-5.73,3.66-8.84s-1.21-6.59-3.66-8.84-5.53-3.87-8.84-3.66h0Z" style="fill:#c49a6c;"/><path d="M62.86,249.04c3.28-1.32,6.54-2.71,9.62-4.46,2.2-1.25,4.31-2.66,6.32-4.21,1.46-.79,2.63-1.86,3.51-3.22,1.1-1.21,1.85-2.62,2.24-4.25,.52-1.66,.6-3.32,.22-4.98-.08-1.66-.57-3.21-1.48-4.65-1.72-2.67-4.28-5.02-7.47-5.74l-3.32-.45c-2.26,0-4.36,.58-6.31,1.71-3.71,2.87-7.78,5.23-12.1,7.06l2.99-1.26c-.28,.12-.57,.24-.85,.35-1.63,.39-3.04,1.13-4.25,2.24-1.36,.88-2.43,2.05-3.22,3.51-.91,1.43-1.41,2.98-1.48,4.65-.37,1.66-.3,3.32,.22,4.98l1.26,2.99c1.11,1.88,2.61,3.37,4.48,4.48l2.99,1.26c2.22,.6,4.43,.6,6.65,0h0Z" style="fill:#c49a6c;"/><path d="M300.59,268.2c3.21,0,6.57-1.39,8.84-3.66s3.8-5.73,3.66-8.84-1.21-6.59-3.66-8.84-5.45-3.66-8.84-3.66c-3.21,0-6.57,1.39-8.84,3.66s-3.8,5.73-3.66,8.84,1.21,6.59,3.66,8.84,5.45,3.66,8.84,3.66h0Z" style="fill:#c49a6c;"/><path d="M316.32,256.03c.21-1.35,.58-2.65,1.11-3.91l-1.26,2.99c.58-1.35,1.32-2.62,2.21-3.78l-1.95,2.53c.58-.74,1.22-1.43,1.91-2.07,1.22-1.13,2.08-2.47,2.58-4.02,.78-1.49,1.14-3.09,1.08-4.82,.06-1.72-.29-3.33-1.08-4.82-.5-1.55-1.37-2.89-2.58-4.02l-2.53-1.95c-1.95-1.13-4.05-1.7-6.31-1.71l-3.32,.45c-2.12,.59-3.96,1.67-5.52,3.21-1.1,1.01-1.98,2.15-2.89,3.34s-1.81,2.32-2.51,3.63c-.22,.42-.42,.84-.61,1.27-.6,1.37-1.23,2.74-1.71,4.16-.33,.94-.56,1.91-.72,2.89-.52,1.66-.6,3.32-.22,4.98,.08,1.66,.57,3.21,1.48,4.65,.79,1.46,1.86,2.63,3.22,3.51,1.21,1.1,2.62,1.85,4.25,2.24l3.32,.45c2.26,0,4.36-.58,6.31-1.71l2.53-1.95c1.55-1.56,2.62-3.4,3.21-5.52h0Z" style="fill:#c49a6c;"/><path d="M310.92,249.54c3.21,0,6.57-1.39,8.84-3.66s3.8-5.73,3.66-8.84-1.21-6.59-3.66-8.84-5.45-3.66-8.84-3.66c-3.21,0-6.57,1.39-8.84,3.66s-3.8,5.73-3.66,8.84,1.21,6.59,3.66,8.84,5.45,3.66,8.84,3.66h0Z" style="fill:#c49a6c;"/><path d="M286.59,230.54c3.21,0,6.57-1.39,8.84-3.66s3.8-5.73,3.66-8.84-1.21-6.59-3.66-8.84-5.45-3.66-8.84-3.66c-3.21,0-6.57,1.39-8.84,3.66s-3.8,5.73-3.66,8.84,1.21,6.59,3.66,8.84,5.45,3.66,8.84,3.66h0Z" style="fill:#c49a6c;"/><path d="M286.59,230.54c3.21,0,6.57-1.39,8.84-3.66s3.8-5.73,3.66-8.84-1.21-6.59-3.66-8.84-5.45-3.66-8.84-3.66c-3.21,0-6.57,1.39-8.84,3.66s-3.8,5.73-3.66,8.84,1.21,6.59,3.66,8.84,5.45,3.66,8.84,3.66h0Z" style="fill:#c49a6c;"/><path d="M50.59,250.2c3.21,0,6.57-1.39,8.84-3.66s3.8-5.73,3.66-8.84-1.21-6.59-3.66-8.84-5.45-3.66-8.84-3.66c-3.21,0-6.57,1.39-8.84,3.66s-3.8,5.73-3.66,8.84,1.21,6.59,3.66,8.84,5.45,3.66,8.84,3.66h0Z" style="fill:#c49a6c;"/><path d="M43.92,250.37c5.23,0,10.24-4.6,10-10s-4.39-10-10-10c-5.23,0-10.24,4.6-10,10s4.39,10,10,10h0Z" style="fill:#c49a6c;"/><path d="M23.54,89.03c-10.71,3.28-18.56,12.17-20.7,23.15-.56,2.86-.89,5.77-1.11,8.67s-.4,5.72,.2,8.65c.93,4.57,4.6,8.72,9.13,9.96,2.42,.66,5.02,.68,7.44-.05,1.74-.53,3.33-1.44,4.99-2.15l-2.39,1.01c.39-.14,.74-.25,1.15-.33l-2.66,.36c.24-.04,.48-.05,.72-.03l-2.66-.36c.22,.02,.43,.07,.64,.14l-2.39-1.01c.21,.07,.4,.17,.58,.29l-2.02-1.56c.18,.12,.33,.26,.46,.43l-1.56-2.02,.17,.26-1.01-2.39c.1,.19,.15,.38,.17,.59,.41,2.33,2.63,4.82,4.6,5.98,2.14,1.25,5.3,1.79,7.71,1.01s4.75-2.28,5.98-4.6c1.32-2.5,1.5-4.92,1.01-7.71-.75-4.28-4.89-7.82-9-8.7-2.34-.5-4.48-.45-6.81,.22-1.58,.46-3.1,1.31-4.6,2l2.39-1.01c-.51,.21-1,.37-1.55,.47l2.66-.36c-.26,.04-.52,.04-.79,0l2.66,.36c-.24-.03-.48-.09-.71-.19l2.39,1.01c-.2-.09-.4-.2-.57-.34l2.02,1.56c-.27-.23-.48-.45-.7-.73l1.56,2.02c-.19-.3-.34-.58-.48-.91l1.01,2.39c-.13-.38-.21-.75-.28-1.15l.36,2.66c-.32-3.06,.17-6.41,.56-9.45l-.36,2.66c.35-2.56,.91-5.06,1.88-7.46l-1.01,2.39c.69-1.61,1.54-3.09,2.6-4.48l-1.56,2.02c1.04-1.3,2.21-2.45,3.53-3.47l-2.02,1.56c1.33-.99,2.76-1.81,4.29-2.46l-2.39,1.01c.59-.24,1.19-.45,1.8-.63,2.45-.75,4.67-2.36,5.98-4.6s1.79-5.3,1.01-7.71c-1.63-5.03-6.95-8.63-12.3-6.98h0Z" style="fill:#c49a6c;"/><path d="M13.25,141.7c5.23,0,10.24-4.6,10-10s-4.39-10-10-10c-5.23,0-10.24,4.6-10,10s4.39,10,10,10h0Z" style="fill:#c49a6c;"/><path d="M55.07,36.74c.34-5.64,.45-11.35,1.07-16.96l-.36,2.66c.13-.94,.32-1.84,.67-2.72l-1.01,2.39c.23-.51,.5-.97,.83-1.42l-1.56,2.02c.28-.34,.58-.63,.92-.91l-2.02,1.56c.27-.19,.53-.35,.83-.49l-2.39,1.01c.34-.13,.65-.22,1.01-.29l-2.66,.36c.38-.04,.71-.04,1.09-.02l-2.66-.36c.63,.09,1.2,.25,1.78,.49l-2.39-1.01c.45,.22,.86,.47,1.27,.76l-2.02-1.56c1.47,1.15,2.57,2.65,3.71,4.11,1.34,1.7,2.67,3.41,4.01,5.11,1.47,1.87,4.81,2.93,7.07,2.93,2.45,0,5.38-1.09,7.07-2.93s3.05-4.41,2.93-7.07l-.36-2.66c-.48-1.69-1.33-3.16-2.57-4.41-1.29-1.64-2.58-3.29-3.87-4.93-1.11-1.42-2.18-2.88-3.56-4.05-3.05-2.58-6.4-4.17-10.41-4.41s-7.77,1.46-10.49,4.16c-2.12,2.1-3.75,5.09-4.34,8.02-.53,2.64-.66,5.33-.83,8.01l-.76,12.63c-.15,2.47,1.22,5.36,2.93,7.07s4.58,3.04,7.07,2.93,5.27-.97,7.07-2.93,2.76-4.31,2.93-7.07h0Z" style="fill:#c49a6c;"/><path d="M148.18,31.73c.67-.33,1.34-.64,2.02-.93l-2.39,1.01c3.16-1.32,6.45-2.22,9.84-2.7l-2.66,.36c2.29-.3,4.63-.48,6.93-.22l-2.66-.36c.82,.11,1.61,.29,2.39,.58l-2.39-1.01c.53,.23,1.02,.49,1.49,.83l-2.02-1.56c.37,.3,.69,.61,.99,.98l-1.56-2.02c.28,.39,.51,.78,.71,1.22l-1.01-2.39c.22,.56,.37,1.12,.47,1.71l-.36-2.66c.14,1.11,.1,2.2-.05,3.3l.36-2.66c-.31,2.01-.9,3.95-1.67,5.83l1.01-2.39c-.92,2.18-2.09,4.21-3.51,6.1l1.56-2.02c-.34,.44-.69,.87-1.05,1.29l17.07,7.07c.06-2.51,.13-5.03,.19-7.54,.06-2.28,.23-4.6,.05-6.88-.26-3.45-.91-7.07-2.87-10.02-2.29-3.44-5.47-6.19-9.56-7.22-2.55-.64-5.41-.33-7.71,1.01-2.07,1.21-4.05,3.59-4.6,5.98-1.18,5.18,1.56,10.94,6.98,12.3,.35,.09,.66,.19,.99,.33l-2.39-1.01c.42,.21,.8,.44,1.18,.73l-2.02-1.56c.36,.31,.68,.63,.99,.99l-1.56-2.02c.44,.57,.8,1.17,1.1,1.83l-1.01-2.39c.37,.92,.59,1.85,.74,2.83l-.36-2.66c.29,2.5,.11,5.03,.04,7.54s-.13,5.18-.2,7.78c-.1,3.97,2.6,7.64,6.15,9.14,1.7,.72,3.35,.93,5.18,.68,2.04-.27,4.35-1.13,5.74-2.75,3.84-4.49,6.82-9.57,8.32-15.33,1.7-6.54,1.35-14.12-3.94-19.02-4.68-4.34-11.17-5.12-17.26-4.44-3.1,.35-6.19,.79-9.19,1.67s-5.83,2.08-8.59,3.44c-2.16,1.06-3.98,3.73-4.6,5.98-.66,2.39-.36,5.58,1.01,7.71s3.43,4.01,5.98,4.6c2.73,.62,5.18,.23,7.71-1.01h0Z" style="fill:#c49a6c;"/><path d="M50.85,121.28c-1.55-7.77-3.45-19.15,5.53-23.13,7.63-3.38,18.14-1.52,25.31,2.09,8.55,4.31,14.27,13.51,9.59,22.77-3.75,7.4-12.31,13.27-20.79,12.6s-16.62-8.36-12.97-17.14c2.4-5.77,11.87-8.04,14.4-1.16,.4,1.08,.66,2.59,.32,3.69-.08,.25-2.38,3.66-.46,2.3,1.03-.73-.21,.82,.28-.05,.16-.29-.08-1.03,.09-1.42,.59-1.39,1.48-2.81,3.09-3.21,1.05-.26,1.79-.03,2.71,.47,.7,.38-.12,1.69,.24,1.17,.78-1.11-.89,.39-.63-.97,.08-.44,1.44-1.31,1.89-1.94-.07,.1,.26-.03,.29-.07,1.49,.65,1.35-.56-.42-3.63l-.94,.92c-2.39,1.05-4.73,2.87-6.98,4.19-.66,.39-5.97,4.24-6.78,3.86-.57-.27-.27-3.88-.21-4.82,.2-2.97,.16-8.98,3.91-9.66,4.95-.9,9.69,5,12.63,8.04l10.61-10.61c-9.57-8.17-23.14-12.75-35.08-6.76-10.15,5.09-16.31,17.34-12.66,28.36,3.02,9.12,17.51,5.21,14.46-3.99-1.52-4.6,1.03-9.36,5.48-11.28,5.79-2.5,12.73,.46,17.19,4.27,7.26,6.2,17.41-3.57,10.61-10.61-7.27-7.52-16.82-14.98-28-11.72s-13.64,14.59-14.2,24.73c-.62,11.21,7.17,21.84,19.39,18.35,5.2-1.49,10.09-5.1,14.69-7.85s8.92-6.03,10.12-11.35c2.44-10.82-9.35-17.51-18.65-14.63-10.12,3.13-15.58,15.71-9.63,24.79,5.62,8.57,18.52,9.83,24.79,1.34,6.46-8.76,2.22-20.86-7.75-24.6s-20.94,2.31-24.24,12.06c-3.1,9.19,1.63,20.84,12.36,21.33,11.43,.52,18.22-11.6,16.58-21.71-1.44-8.94-8.38-16.45-17.4-17.95-9.9-1.65-20.49,3.51-25.04,12.53-4.87,9.65-2.94,21.53,4.06,29.6,15.18,17.52,42.34,10.14,54-7.28,6.87-10.26,7.19-23.4,.31-33.75s-19.52-16.08-32.04-17.58c-10.42-1.25-22.4,.82-29.61,9.09-8.4,9.64-7.21,22.6-4.89,34.26,1.88,9.46,16.34,5.46,14.46-3.99h0Z" style="fill:#fdf8e3;"/><path d="M19.79,136.74c-1.54-14.01,8.66-24.81,22.8-23.64,9.62,.79,9.57-14.21,0-15-21.63-1.78-40.18,16.98-37.8,38.64,.44,4.03,3.13,7.5,7.5,7.5,3.71,0,7.94-3.45,7.5-7.5h0Z" style="fill:#fdf8e3;"/><path d="M96.23,117.36c19.59-1.64,37.53,12.2,34.92,32.93l7.5-7.5h-39.67c-9.65,0-9.67,15,0,15h39.67c4.43,0,6.99-3.47,7.5-7.5,3.58-28.36-22.92-50.19-49.92-47.93-9.55,.8-9.63,15.81,0,15h0Z" style="fill:#fdf8e3;"/><path d="M27.25,138.29c2.39-7.61,8.36-13.45,15.98-15.75,9.22-2.78,5.29-17.26-3.99-14.46-12.74,3.84-22.48,13.55-26.46,26.23-2.9,9.23,11.58,13.18,14.46,3.99h0Z" style="fill:#fdf8e3;"/><path d="M36.87,142.38c-.26,.66,.19-.4,.24-.52,.31-.63,.64-1.24,.99-1.84,.28-.48,.58-.95,.89-1.42,.08-.13,1-1.35,.58-.83,1.58-1.94,3.07-3.26,4.73-4.37,3.37-2.24,4.82-6.62,2.69-10.26-1.95-3.34-6.88-4.95-10.26-2.69-6.72,4.48-11.37,10.47-14.33,17.94-1.49,3.77,1.63,8.24,5.24,9.23,4.26,1.17,7.73-1.46,9.23-5.24h0Z" style="fill:#fdf8e3;"/><path d="M40.94,153.09c1.37-2.44,2.08-3.34,4.2-5.22,1.19-1.05,3.48-2.41,4.78-2.91,3.78-1.44,6.38-5.05,5.24-9.23-1-3.62-5.42-6.69-9.23-5.24-7.61,2.9-13.91,7.88-17.94,15.03-1.99,3.53-.84,8.2,2.69,10.26s8.26,.85,10.26-2.69h0Z" style="fill:#fdf8e3;"/><path d="M54.94,159.66c1.15-5.43,4.65-9.65,10.02-11.21,9.25-2.69,5.31-17.17-3.99-14.46-10.15,2.96-18.29,11.26-20.5,21.69-.84,3.96,1.17,8.11,5.24,9.23,3.73,1.02,8.38-1.26,9.23-5.24h0Z" style="fill:#fdf8e3;"/><path d="M43.23,149.56l-1.85-.35-1.99,14.73c.51,.04,1.03,.08,1.54,.11,1.03,.04,2-.18,2.89-.65,.93-.3,1.73-.82,2.41-1.55,.73-.68,1.25-1.48,1.55-2.41,.47-.89,.68-1.86,.65-2.89l-.27-1.99c-.36-1.27-1-2.37-1.93-3.31l-1.52-1.17c-1.17-.68-2.43-1.02-3.79-1.02-.51-.04-1.03-.08-1.54-.11-1.03-.04-2,.18-2.89,.65-.93,.3-1.73,.82-2.41,1.55l-1.17,1.52c-.55,.86-.84,1.79-.89,2.79-.18,.66-.18,1.33,0,1.99,.05,1,.34,1.93,.89,2.79l1.17,1.52c.94,.93,2.04,1.57,3.31,1.93l1.85,.35c1,.31,1.99,.36,2.99,.13,1-.05,1.93-.34,2.79-.89,.87-.47,1.58-1.12,2.1-1.93,.66-.72,1.11-1.57,1.34-2.55l.27-1.99c0-1.35-.35-2.62-1.02-3.79l-1.17-1.52c-.94-.93-2.04-1.57-3.31-1.93h0Z" style="fill:#fdf8e3;"/><path d="M34.17,161.97c12.85,32.35,37.03,59.34,68.36,74.76,8.63,4.25,16.24-8.68,7.57-12.95-27.65-13.61-50.05-37.05-61.47-65.8-1.49-3.75-5.02-6.42-9.23-5.24-3.57,1-6.75,5.43-5.24,9.23h0Z" style="fill:#fdf8e3;"/><path d="M53.94,164.9c8.44,16.92,19.28,32.47,32.08,46.37,6.55,7.12,17.14-3.51,10.61-10.61-11.97-13-21.85-27.53-29.73-43.34-4.31-8.64-17.25-1.05-12.95,7.57h0Z" style="fill:#fdf8e3;"/><path d="M47.9,168.96c5.61,8.48,11.22,16.97,16.83,25.45,5.3,8.02,18.3,.51,12.95-7.57-5.61-8.48-11.22-16.97-16.83-25.45-5.3-8.02-18.3-.51-12.95,7.57h0Z" style="fill:#fdf8e3;"/><path d="M43.2,158.6c3.86,8.1,9.51,15.34,16.46,21.03,3.13,2.57,7.54,3.06,10.61,0,2.65-2.65,3.15-8.03,0-10.61-6.1-5-10.72-10.88-14.11-17.99-1.74-3.66-6.98-4.61-10.26-2.69-3.74,2.19-4.44,6.59-2.69,10.26h0Z" style="fill:#fdf8e3;"/><path d="M54.57,158.27c6.16,11.37,12.32,22.74,18.47,34.1,4.6,8.49,17.56,.93,12.95-7.57-6.16-11.37-12.32-22.74-18.47-34.1-4.6-8.49-17.56-.93-12.95,7.57h0Z" style="fill:#fdf8e3;"/><path d="M59.31,154.68c1.62,15.11,4.88,29.81,10.19,44.06,2.54,6.82,12.14,7.4,14.46,0,.52-1.64,1.03-3.29,1.55-4.93,2.9-9.23-11.57-13.18-14.46-3.99-.52,1.64-1.03,3.29-1.55,4.93h14.46c-4.82-12.93-8.19-26.35-9.66-40.08-.43-4.03-3.14-7.5-7.5-7.5-3.72,0-7.93,3.45-7.5,7.5h0Z" style="fill:#fdf8e3;"/><path d="M76.46,161.04c-.49,14.62,2.09,29.16,7.73,42.66,3.26,7.79,13.87,6.77,14.73-1.99,.22-2.22,.44-4.43,.66-6.65,.4-4.04-3.73-7.5-7.5-7.5-4.39,0-7.1,3.45-7.5,7.5-.22,2.22-.44,4.43-.66,6.65l14.73-1.99c-5.18-12.39-7.64-25.25-7.2-38.67,.32-9.65-14.68-9.64-15,0h0Z" style="fill:#fdf8e3;"/><path d="M88.29,158.37c.32,10.11,.65,20.22,.97,30.33s15.31,9.67,15,0-.65-20.22-.97-30.33-15.31-9.67-15,0h0Z" style="fill:#fdf8e3;"/><path d="M83.15,168.4c1.04,15.87,4.32,31.39,10.12,46.22,1.37,3.51,4.28,5.91,8.23,5.37,3.38-.46,6.88-3.65,6.5-7.37-.14-1.42-.29-2.85-.43-4.27-.41-4.03-3.16-7.5-7.5-7.5-3.74,0-7.91,3.45-7.5,7.5,.14,1.42,.29,2.85,.43,4.27l14.73-1.99c-5.3-13.56-8.63-27.69-9.58-42.23-.63-9.58-15.64-9.65-15,0h0Z" style="fill:#fdf8e3;"/><path d="M75.78,161l-2.22,19.01c-.47,4.03,3.78,7.5,7.5,7.5,4.44,0,7.03-3.46,7.5-7.5l2.22-19.01c.47-4.03-3.78-7.5-7.5-7.5-4.44,0-7.03,3.46-7.5,7.5h0Z" style="fill:#fdf8e3;"/><path d="M68.59,157.71c1.64,12,5.02,23.36,9.72,34.5,1.91,4.52,8.75,4.62,11.78,1.52l.91-.93c6.74-6.92-3.86-17.54-10.61-10.61l-.91,.93,11.78,1.52c-4.16-9.85-6.76-20.34-8.21-30.92-.55-4-5.7-6.23-9.23-5.24-4.33,1.21-5.79,5.18-5.24,9.23h0Z" style="fill:#fdf8e3;"/><path d="M71.66,160.44c1.99,9.67,3.97,19.34,5.96,29.01s16.4,5.45,14.46-3.99c-1.99-9.67-3.97-19.34-5.96-29.01s-16.4-5.45-14.46,3.99h0Z" style="fill:#fdf8e3;"/><path d="M111.4,222.96c-1.97-18.58,2.35-36.66,12.69-52.24,5.35-8.07-7.63-15.59-12.95-7.57-11.63,17.52-16.96,38.88-14.74,59.81,.43,4.03,3.14,7.5,7.5,7.5,3.72,0,7.93-3.45,7.5-7.5h0Z" style="fill:#fdf8e3;"/><path d="M94.44,158.71l9.04-5.11-11.29-6.48c.08,3.39,.01,6.78-.46,10.14-.21,1.51-.51,3.01-.85,4.5-.59,2.59-2.56,4.05,1.42,2.65h3.99c2.5,2.95,3.5,3.44,2.99,1.47-.15-.87-.26-1.75-.33-2.63-.19-1.82-.32-3.65-.4-5.47s-.14-3.66-.07-5.49c.16-4,.59-.03-2.47,.61h-3.99c-1.87-.53-2.26-2.32-.92,.59,.69,1.51,1.34,3.05,2.02,4.57,1.34,3.05,2.69,6.09,4.03,9.14l11.78-9.09c-7.67-7.94-17.04-13.61-27.56-16.93l-3.99,14.46c9.74,1.69,21.44,3.03,29.2-4.61,7.7-7.58,4.35-20.76-7.09-21.39-7.5-.42-10.11,10.45-3.79,13.98,.78,.41,1.53,.85,2.27,1.34l1.67-4.97c-.16-.17-4.6,.5-5.04,.52-3.88,.12-7.69-.16-11.51-.88v14.46c1.68-.4,3.16-.96,4.78-1.52l1.58-.56c2.14-.15,1.93-1.01-.65-2.56l1.02-3.79-.45,.98c-4.02,8.71,8.91,16.34,12.95,7.57,2.59-5.6,1.51-12.14-4.09-15.56-6.5-3.97-12.58-.59-19.14,.97-6.94,1.66-7.36,13.08,0,14.46,8.34,1.57,20.96,3.69,28.46-1.56,9.24-6.46,3.56-17.48-4.3-21.86l-3.79,13.98,1.1,.06-3.79-1.02c.52-2.83,.25-3.91-.81-3.22-.51,.3-1.02,.58-1.54,.86-1.31,.2-2.46,.62-3.8,.72-3.1,.23-6.25-.33-9.29-.85-9.38-1.63-13.35,11.51-3.99,14.46,8.1,2.56,15.05,6.98,20.94,13.07,6.33,6.55,15.02-1.74,11.78-9.09s-7-23.6-18.08-21.19c-10.39,2.26-8.89,15.99-8.16,23.9,.43,4.56,.52,9.97,3.66,13.6s8.62,4.17,12.39,1.22,4.92-8.67,5.84-13.24c1.11-5.54,1.59-11.17,1.46-16.81s-6.27-9.31-11.29-6.48l-9.04,5.11c-8.4,4.75-.85,17.71,7.57,12.95h0Z" style="fill:#fdf8e3;"/><path d="M98.23,137.46c2.4,11.96,.67,24.38-4.85,35.26l13.71,5.78c4.06-12.02,8.13-24.04,12.19-36.06,3.1-9.17-11.34-13.07-14.46-3.99-4.06,11.8-6.21,24.11-6.58,36.58-.29,9.66,14.71,9.65,15,0,.34-11.2,2.41-22,6.05-32.59l-14.46-3.99c-4.06,12.02-8.13,24.04-12.19,36.06-2.7,8,9.86,13.38,13.71,5.78,7.43-14.66,9.59-30.71,6.36-46.82-1.9-9.46-16.36-5.45-14.46,3.99h0Z" style="fill:#fdf8e3;"/><path d="M202.97,223.39c.6-.49,1.22-.94,1.87-1.36,.98-.6,.21-.75-2.32-.42-.13,.25,2.96,3.29,3.3,3.68,2.59,2.9,5.18,5.8,7.77,8.7,6.44,7.22,17.02-3.42,10.61-10.61-4.02-4.51-7.86-9.93-12.6-13.68-5.07-4.03-11.33-3.02-16.2,.75-3.2,2.47-4.92,6.45-2.69,10.26,1.84,3.15,7.04,5.18,10.26,2.69h0Z" style="fill:#fdf8e3;"/><path d="M213.54,225.41c-5.71-5.59-14.85-6.89-21.56-2.22l11.02,8.47c.77-2.64,1.53-5.27,2.3-7.91,1.03-3.56-.96-7.49-4.34-8.85-3.71-1.49-7.08-.02-9.37,3.07-3.26,4.41-6.52,8.81-9.78,13.22-2.41,3.26-.54,8.37,2.69,10.26,3.81,2.23,7.85,.58,10.26-2.69,3.26-4.41,6.52-8.81,9.78-13.22-4.57-1.93-9.14-3.85-13.71-5.78-.77,2.64-1.53,5.27-2.3,7.91-1.73,5.96,5.53,12.28,11.02,8.47,1.25-.87,2.18-1.31,3.38-.12,6.9,6.76,17.52-3.84,10.61-10.61h0Z" style="fill:#fdf8e3;"/><path d="M183.58,236.06l-5.44,3.08c-2.57,1.45-.77,5.11,1.93,4.57,12.23-2.44,24.46-4.88,36.69-7.31,1.32-.26,2.09-1.84,1.75-3.08-.4-1.44-1.73-1.93-3.08-1.75-3.8,.52-7.59,1.03-11.39,1.55-1.21,.16-1.95,1.66-1.79,2.74,.18,1.2,1.19,2.19,2.46,2.17,7.94-.13,15.81-1.72,23.15-4.76,2.2-.91,2.53-4.02,0-4.82-1.95-.62-3.91-1.23-5.86-1.85l-1.33,4.82c3.2,.79,6.4,1.57,9.6,2.36s4.46-4.05,1.33-4.82-6.4-1.57-9.6-2.36-4.4,3.85-1.33,4.82c1.95,.62,3.91,1.23,5.86,1.85v-4.82c-6.94,2.88-14.3,4.46-21.82,4.58l.66,4.91c3.8-.52,7.59-1.03,11.39-1.55l-1.33-4.82c-12.23,2.44-24.46,4.88-36.69,7.31l1.93,4.57,5.44-3.08c2.8-1.58,.28-5.91-2.52-4.32h0Z" style="fill:#fdf8e3;"/><path d="M196.83,210.48c4.38-1.2,8.76-2.4,13.15-3.61,1.2-.33,1.95-1.53,1.79-2.74s-1.2-2.15-2.46-2.17c-3.67-.06-7.33-.12-11-.18l1.26,4.66c.4-.22,.8-.43,1.21-.62,.05-.02,.61-.27,.32-.15s.28-.11,.33-.13c.81-.31,1.65-.55,2.5-.74,.41-.09,.82-.16,1.23-.22-.45,.07,.08,0,.24-.02,.19-.02,.38-.03,.57-.04,.87-.05,1.74-.04,2.61,.03,1.31,.11,2.56-1.23,2.5-2.5-.06-1.45-1.1-2.38-2.5-2.5-3.99-.33-8.04,.62-11.53,2.57-2.21,1.23-1.17,4.62,1.26,4.66,3.67,.06,7.33,.12,11,.18l-.66-4.91-13.15,3.61c-1.26,.35-2.16,1.79-1.75,3.08s1.72,2.12,3.08,1.75h0Z" style="fill:#fdf8e3;"/><path d="M277.58,167.24c-2.86,14.43-7.25,28.67-13.8,41.87-5.59,11.25-14.24,23.25-28.23,22.46-9.64-.55-9.61,14.46,0,15,17.22,.97,30.82-11.27,38.81-25.41,8.66-15.32,14.27-32.74,17.68-49.94,1.87-9.43-12.59-13.46-14.46-3.99h0Z" style="fill:#87603c;"/><path d="M232.61,246.63c8.33,2.19,17.12,4.15,25.72,2.4s14.61-6.93,19.13-13.83,7.18-15.24,9.62-23.03c2.71-8.66,4.7-17.51,6.1-26.48,.63-4.03-1.03-8.02-5.24-9.23-3.55-1.02-8.6,1.24-9.23,5.24-2.14,13.68-5.36,27.99-11.27,40.59-2.43,5.18-5.64,10.36-11.5,11.92-6.29,1.68-13.27-.44-19.34-2.04-9.34-2.46-13.33,12.01-3.99,14.46h0Z" style="fill:#87603c;"/><path d="M283.96,190.11l19.35,4.59c9.39,2.23,13.39-12.23,3.99-14.46-6.45-1.53-12.9-3.06-19.35-4.59-9.39-2.23-13.39,12.23-3.99,14.46h0Z" style="fill:#87603c;"/><path d="M299.74,184.42c-6.84,11.85-14.76,22.91-23.87,33.12-5.41,6.06,1.58,16.64,9.09,11.78,5.22-3.38,9.63-7.85,12.47-13.44,1.4-2.75,2.5-5.71,3.1-8.74,.27-1.37,.45-2.79,.57-4.18,.09-.73,.13-1.47,.13-2.2,.3-2.75-.77-1.85-3.21,2.71h-3.99c-.97-4.06-1.93-5.12-2.9-3.2-.46,.72-.94,1.43-1.44,2.13-1.03,1.48-2.09,2.95-3.16,4.4-1.95,2.63-4,5.18-6.12,7.68-4.47,5.29-9.25,10.3-14.27,15.08-5.42,5.17,.16,14.62,7.3,12.54,23.28-6.79,33.68-28.99,42.11-49.69,1.54-3.78-1.67-8.21-5.24-9.23-4.28-1.22-7.7,1.5-9.23,5.24-6.3,15.47-14.07,34.09-31.64,39.21,2.43,4.18,4.86,8.36,7.3,12.54,6.98-6.66,13.45-13.79,19.38-21.4,4.98-6.4,14.17-15.76,9.22-24.51-5.14-9.09-17.89-5.77-18.95,4.19-.79,7.41-2.31,13.59-9,17.93l9.09,11.78c9.94-11.14,18.75-23.22,26.21-36.16,4.83-8.38-8.12-15.94-12.95-7.57h0Z" style="fill:#87603c;"/><path d="M275.4,165.89c-11.48,22.71-38.67,27.52-61.37,31.55-6.59,1.17-6.98,10.64-1.79,13.71,11.11,6.58,22.23,13.17,33.34,19.75,7.35,4.35,15.09-5.71,9.09-11.78-2.24-2.27,1.53-5.85,3.29-7.08,3.93-2.74,8.98-3.6,13.56-4.61-2.82-3.67-5.65-7.34-8.47-11.02-6.51,8.51-14.78,15.45-24.01,20.82l9.09,11.78c4.22-3.78,8.11-8.52,7.98-14.51-.12-5.44-3.57-10.88-8.99-12.34-14.02-3.78-19.26,14.72-18.32,25,4.91-.66,9.82-1.33,14.73-1.99-3.47-8.28-8.93-13.74-17.26-17.13-3.78-1.54-8.21,1.67-9.23,5.24-1.22,4.28,1.5,7.71,5.24,9.23,2.89,1.17,5.57,3.77,6.78,6.65,1.46,3.49,4.21,5.92,8.23,5.37,3.4-.46,6.84-3.64,6.5-7.37-.2-2.19-.3-4.33,.1-6.51,.17-.91,1.53-3.45,1.38-3.96-.18-.61-3.92-2.04-4.18-1.93-.97,.39-2.69,2.86-3.56,3.65-6.43,5.75,1.83,16,9.09,11.78,11.59-6.74,21.26-15.59,29.39-26.2,4.3-5.62-2.77-12.28-8.47-11.02-9.16,2.02-18.44,4.9-24.29,12.73-5.41,7.25-5.77,17.38,.81,24.02l9.09-11.78c-11.11-6.58-22.23-13.17-33.34-19.75l-1.79,13.71c26.7-4.74,56.98-12.03,70.34-38.45,4.35-8.59-8.59-16.2-12.95-7.57h0Z" style="fill:#87603c;"/><path d="M186.91,182.12c-7.46,15.33-13.98,33.07-25.34,46.04-10.47,11.95-25.13,17.11-40.78,14.89-8.4-1.19-17.26,5.28-12.59,14.43,4.07,7.98,14.7,6.42,21.98,5.24,16.14-2.62,31.24-11.51,41.42-24.27,2.54-3.19,3.06-7.48,0-10.61-2.59-2.65-8.09-3.16-10.61,0-5.36,6.73-11.8,12.03-19.55,15.8-3.62,1.76-7.5,3-11.42,3.88-1.89,.42-3.78,.75-5.7,.93-1,.1-2.13,0-3.11,.19-.42,.01-.84,.03-1.26,.04-1.43-.06-.85,.59,1.75,1.96v3.99l-1.48,2.22-3.79,1.02c4.19-.53,8.68,.89,12.96,.81,4.82-.09,9.78-.79,14.43-2.07,9.4-2.59,18.06-7.56,25.05-14.34,14.59-14.16,22.26-34.63,30.99-52.57,4.21-8.64-8.72-16.26-12.95-7.57h0Z" style="fill:#87603c;"/><path d="M182.27,181.51c-7.81,14.81-17.01,29.02-28,41.68-9.64,11.1-20.93,21.07-35.43,24.9-9.33,2.46-5.37,16.93,3.99,14.46,16.39-4.33,29.91-15.05,40.99-27.55,12.32-13.89,22.76-29.53,31.4-45.93,4.5-8.53-8.44-16.12-12.95-7.57h0Z" style="fill:#87603c;"/><path d="M38.9,246.68c14.43,5.98,29.08-.92,41.67-7.98,8.42-4.72,.87-17.68-7.57-12.95-9.31,5.22-19.37,10.91-30.11,6.46-3.77-1.56-8.21,1.69-9.23,5.24-1.23,4.3,1.51,7.68,5.24,9.23h0Z" style="fill:#87603c;"/><path d="M199.8,294.69c15.91-3.31,31.9-6.37,47.74-10.01,14.52-3.34,28.81-8.19,40.51-17.69,23.57-19.13,30.39-50.27,35.77-78.58,1.79-9.43-12.66-13.48-14.46-3.99-4.84,25.47-10.15,54.99-31.91,71.96-10.68,8.33-24.29,11.74-37.26,14.59-14.76,3.23-29.58,6.18-44.37,9.26-9.44,1.97-5.45,16.43,3.99,14.46h0Z" style="fill:#87603c;"/><path d="M205.18,294.51l5.36-2.48c3-1.39,4.22-5.48,3.45-8.47-3.31-12.72-22.09-7.31-19.4,5.34,2.51,11.84,18.15,13.33,27.73,11.12,11.52-2.66,22.76-9.11,33.47-13.99,12.12-5.53,24.16-11.25,36.13-17.12,8.67-4.25,1.07-17.19-7.57-12.95-13.42,6.59-26.94,12.97-40.57,19.13-6.28,2.84-12.55,5.84-18.97,8.37-3.05,1.2-6.26,2.36-9.55,2.56-1.67,.1-3.12-.38-4.75-.51-2.19-.18-.94-1.64-1.09,.2l-1.02,3.79-3.33,1.62-3.79-1.02-1.75-2.54,3.45-8.47-5.36,2.48c-8.75,4.05-1.14,16.98,7.57,12.95h0Z" style="fill:#87603c;"/><path d="M220.32,300.8c35.77-8.49,73.17-22.39,94.24-54.52,10-15.25,14.71-33.95,12.05-52.05-1.35-9.22-4.65-17.51-15.19-17.99s-20.78,.46-31.05,.69c-9.64,.22-9.67,15.22,0,15,8.91-.2,17.82-.41,26.73-.61,.99-.02,1.98-.05,2.97-.07,1.7,.31,1.81-.03,.34-1.01,.79,1.1,.93,3.42,1.18,4.68,.73,3.72,.93,7.51,.81,11.3-.44,14.15-6.4,28-15.44,38.78-20.22,24.15-50.99,34.3-80.63,41.33-9.39,2.23-5.41,16.7,3.99,14.46h0Z" style="fill:#87603c;"/><path d="M128.24,68.45c-.92-1.26-1.85-2.67-2.99-3.73-1.61-1.5-3.26-2.48-5.25-3.32-3.57-1.51-7.39-1.88-11.17-.8-7.55,2.16-11.94,9.86-11.68,17.42,.22,6.43,3.55,12.65,9.12,16.03,4.68,2.84,10.17,3.55,15.48,2.28,10.35-2.48,16.82-14.58,13.44-24.59-1.67-4.95-5.06-9.3-9.76-11.72-4.16-2.14-8.51-2.89-13.15-3-7.85-.18-15.36,7.02-15,15s6.59,14.81,15,15c1.02,.02,2.03,.08,3.05,.21l-3.99-.54c.79,.14,1.53,.33,2.28,.62l-3.58-1.51c.51,.24,.95,.49,1.42,.81l-3.04-2.35c.44,.36,.79,.7,1.15,1.13l-2.35-3.04c.22,.29,.4,.6,.54,.93l-1.51-3.58c.13,.29,.22,.59,.28,.91l-.54-3.99c.06,.5,.07,.92,.03,1.42l.54-3.99c-.09,.49-.21,.91-.39,1.37l1.51-3.58c-.13,.29-.29,.56-.48,.82l2.35-3.04c-.32,.39-.61,.68-1.01,.99l3.04-2.35c-.28,.2-.59,.35-.91,.47l3.58-1.51c-.32,.12-.65,.2-1,.25l3.99-.54c-.34,.04-.69,.05-1.03,.02l3.99,.54c-.54-.07-.98-.18-1.49-.37l3.58,1.51c-.32-.14-.61-.31-.89-.51l3.04,2.35c-.28-.21-.52-.45-.74-.72l2.35,3.04c-.21-.27-.39-.56-.54-.87l1.51,3.58c-.2-.51-.32-.95-.41-1.48l.54,3.99c-.04-.34-.04-.69,0-1.03l-.54,3.99c.09-.54,.21-.97,.42-1.48l-1.51,3.58,.25-.45-8.96,6.89,.46-.1-3.99,.54,.47,.02-3.99-.54,.46,.12-3.58-1.51,.42,.22-3.04-2.35,.36,.31-2.35-3.04,.28,.38c2.36,3.25,4.95,5.79,8.96,6.89,3.59,.99,8.37,.54,11.56-1.51s6.02-5.14,6.89-8.96,.82-8.35-1.51-11.56h0Z" style="fill:#372415;"/><path d="M41.59,90.37c7.85,0,15.36-6.9,15-15s-6.59-15-15-15c-7.85,0-15.36,6.9-15,15s6.59,15,15,15h0Z" style="fill:#372415;"/><path d="M41.25,92.04c7.85,0,15.36-6.9,15-15s-6.59-15-15-15c-7.85,0-15.36,6.9-15,15s6.59,15,15,15h0Z" style="fill:#372415;"/><path d="M115.59,89.7c7.85,0,15.36-6.9,15-15s-6.59-15-15-15c-7.85,0-15.36,6.9-15,15s6.59,15,15,15h0Z" style="fill:#151515;"/><path d="M40.26,61.78c-5.77,6.46-8.03,19.45,.97,24.56,5.04,2.86,11.03,1.1,14.21-3.57,1-1.46,1.69-3.12,2.03-4.86,.38-1.91,.13-5.17,.46-6.5,.96-3.93-1.25-8.13-5.24-9.23s-8.26,1.29-9.23,5.24c-.53,2.18-.68,4.39-.64,6.62-.07,1-.06,1.25,.02,.74,.09-.42,.04-.28-.15,.45,1.28-1.95,2.78-3.79,6.1-1.84l1.31,1.22c.24,.73,.24,.67,0-.17-.13,1.26,.07-.95,.1-1.1-.2,1.18,.46-.75,.13-.11-.39,.74,1.45-1.87,.53-.84,2.7-3.02,2.98-7.63,0-10.61-2.75-2.75-7.9-3.03-10.61,0h0Z" style="fill:#151515;"/><path d="M118.92,74.33c7.24,0,7.25-11.25,0-11.25s-7.25,11.25,0,11.25h0Z" style="fill:#fff;"/><path d="M48.92,73.33c7.24,0,7.25-11.25,0-11.25s-7.25,11.25,0,11.25h0Z" style="fill:#fff;"/><path d="M70.57,104.44c-.06,.61-.44,1.2-.04,.42-.48,.94-1.24,1.9-2.15,2.45l-8.47-6.55,2.23-3.02-.45,.25c.91-.37,1.09-.47,.54-.32-.92,.29,1.34-.04,.38-.07s1.32,.42,.37,.1c-.19-.07-1.37-.43-.39-.05s-.39-.32-.53-.42c-3.24-2.23-8.46-.71-10.26,2.69-2.01,3.81-.77,7.88,2.69,10.26,7.03,4.83,20.24,2.06,20.24-8.06,0-5.98-5.73-10.35-11.5-8.77-5.3,1.45-7.14,6.15-7.66,11.09-.41,3.91,3.74,7.67,7.5,7.5,4.41-.2,7.06-3.31,7.5-7.5h0Z" style="fill:#383736;"/><path d="M61.21,143.79l8.31,2.1c3.8,.96,8.31-1.23,9.23-5.24s-1.17-8.2-5.24-9.23l-8.31-2.1c-3.8-.96-8.31,1.23-9.23,5.24s1.17,8.2,5.24,9.23h0Z" style="fill:#fff;"/><path d="M69.56,137.73c-2.34-3.09-3.58-6.91-3.45-10.79,.05-1.56-2.89-1.17-2.94,.2-.15,4.26,1.16,8.49,3.74,11.89,.44,.59,1.38,.54,1.98,.25,.53-.26,1.12-.96,.67-1.55h0Z" style="fill:#231f20;"/><path d="M125.79,76.74c2.41,0,2.42-3.75,0-3.75s-2.42,3.75,0,3.75h0Z" style="fill:#fff;"/><path d="M125.34,130.35c-2.09-1.65-9.57-6.17-9.88-8.04v3.99c-5.96,.77-7.61,2.15-4.97,4.15,.31,.43,.59,.87,.86,1.33,.71,1.53,.56,3.09,.37,4.7l9.49-7.23c-1.4-.51-1.74-.53-1.02-.05l1.02,3.79-.07-1.33-1.02,3.79c-3.59,.04-4.62,.49-3.08,1.37l.36,.52c0,.76,.58,1.68,.6,2.53,.05,2.79-1.66,5.51-3.01,7.84-3.65,6.27-7.67,12.35-11.52,18.5-4.55,7.29,5.78,15.05,11.78,9.09,2.88-2.86,5.5-5.96,7.82-9.28,.98-1.4,1.89-2.84,2.74-4.32,.36-.63,1.99-4.91,2.23-5.03l-3.79,1.02,1.04-.08-3.79-1.02-1.29-1.14-1.02-3.79-.17,1.29,1.02-3.79c-1.91,4.41-5.07,7.92-8.66,11.04l11.78,9.09c2.04-3.03,4.08-6.06,6.11-9.09-4.32-2.52-8.63-5.05-12.95-7.57-1.76,3.23-3.51,6.47-5.27,9.7-4.72,8.69,7.3,15.14,12.95,7.57,5.35-7.16,10.71-14.33,16.06-21.49,2.44-3.27,.51-8.35-2.69-10.26-3.8-2.28-7.85-.54-10.26,2.69l-16.06,21.49,12.95,7.57c1.76-3.23,3.51-6.47,5.27-9.7,4.65-8.55-7.59-15.54-12.95-7.57-2.04,3.03-4.08,6.06-6.11,9.09-5,7.43,5.67,14.4,11.78,9.09s20.21-22.22,6.19-27.56c-6.08-2.32-10.88,1.93-13.38,7.08-2.63,5.43-5.89,10.11-10.17,14.37l11.78,9.09c7.77-12.45,24.01-30.9,12.64-45.85-4.58-6.03-14-8.81-19.94-2.91-7.46,7.43-.14,16.86,8.1,18.7,5.16,1.15,8.94-2.28,9.49-7.23,1.09-9.66-6.83-23.98-18.28-21.45-5.52,1.22-8.92,6.95-7.26,12.4,1.84,6.04,8.9,9.87,13.55,13.52,3.21,2.52,7.47,3.07,10.61,0,2.63-2.58,3.18-8.11,0-10.61h0Z" style="fill:#fdf8e3;"/><path d="M305.81,164.37c7.85,0,15.36-6.9,15-15s-6.59-15-15-15c-7.85,0-15.36,6.9-15,15s6.59,15,15,15h0Z" style="fill:#c49a6c;"/><path d="M153.81,37.26c7.85,0,15.36-6.9,15-15s-6.59-15-15-15c-7.85,0-15.36,6.9-15,15s6.59,15,15,15h0Z" style="fill:#c49a6c;"/><path d="M48.25,37.26c7.85,0,15.36-6.9,15-15s-6.59-15-15-15c-7.85,0-15.36,6.9-15,15s6.59,15,15,15h0Z" style="fill:#c49a6c;"/><path d="M183.37,224.66c5.03-6.14,8.68-13.04,10.27-20.87,.8-3.97-1.14-8.1-5.24-9.23-3.7-1.02-8.42,1.25-9.23,5.24-1.06,5.21-3.01,10.1-6.41,14.25-2.56,3.13-3.06,7.54,0,10.61,2.65,2.65,8.03,3.15,10.61,0h0Z" style="fill:#87603c;"/><path d="M113.05,261.19c7.98,5.94,20.88,4.23,29.7,1.31,10.44-3.46,19.63-9.93,27.04-18,15.01-16.34,24.59-37.78,28.19-59.56,1.56-9.44-12.89-13.5-14.46-3.99-2.93,17.72-9.76,35.09-21.08,49.18-5.3,6.6-11.65,12.45-19.33,16.14-5.89,2.83-16.62,6.34-22.49,1.97-3.27-2.44-8.34-.51-10.26,2.69-2.28,3.8-.54,7.85,2.69,10.26h0Z" style="fill:#87603c;"/><path d="M283.14,176.2c9.65,0,9.67-15,0-15s-9.67,15,0,15h0Z" style="fill:#87603c;"/><path d="M36.72,248.56l.89,.22c1,.31,1.99,.36,2.99,.13,1-.05,1.93-.34,2.79-.89,.87-.47,1.58-1.12,2.1-1.93,.66-.72,1.11-1.57,1.34-2.55l.27-1.99c0-1.35-.35-2.62-1.02-3.79l-1.17-1.52c-.94-.93-2.04-1.57-3.31-1.93l-.89-.22c-1-.31-1.99-.36-2.99-.13-1,.05-1.93,.34-2.79,.89-.87,.47-1.58,1.12-2.1,1.93-.66,.72-1.11,1.57-1.34,2.55l-.27,1.99c0,1.35,.35,2.62,1.02,3.79l1.17,1.52c.94,.93,2.04,1.57,3.31,1.93h0Z" style="fill:#87603c;"/><path d="M45.81,250.42h.22c1.03,.04,2-.18,2.89-.65,.93-.3,1.73-.82,2.41-1.55,.73-.68,1.25-1.48,1.55-2.41,.47-.89,.68-1.86,.65-2.89l-.27-1.99c-.36-1.27-1-2.37-1.93-3.31l-1.52-1.17c-1.17-.68-2.43-1.02-3.79-1.02h-.22c-1.03-.04-2,.18-2.89,.65-.93,.3-1.73,.82-2.41,1.55-.73,.68-1.25,1.48-1.55,2.41-.47,.89-.68,1.86-.65,2.89l.27,1.99c.36,1.27,1,2.37,1.93,3.31l1.52,1.17c1.17,.68,2.43,1.02,3.79,1.02h0Z" style="fill:#87603c;"/><path d="M78.7,240.65c9.65,0,9.67-15,0-15s-9.67,15,0,15h0Z" style="fill:#87603c;"/><path d="M207.7,220.65c9.65,0,9.67-15,0-15s-9.67,15,0,15h0Z" style="fill:#fdf8e3;"/></g><g id="Outline"><g><g><path d="M179.07,241.93l.05,.03s-.09,0-.09,0c.01-.01,.03-.03,.04-.04Z" style="fill:#441722;"/><path d="M181.92,170.73c.14-.04,.28-.08,.42-.12-.14,.04-.28,.08-.42,.12Z" style="fill:#faf3db;"/><path d="M270.75,120.84l-.05-.04s.03,.08,.05,.04Z" style="fill:#c57e63;"/></g><path d="M187.95,89.82c-6.57-12.24-9.57-26.24-15.57-39.24-2-5,2-9,3-13,3-10,2-21-6-28-10.19-6.01-23.33-4.27-31,5-1,2-3,6-4,5-21-7-43-6-65-1-1,0-2-1-2-1C60.67,1.81,41.48-3.98,34.38,14.59c-5.59,10.23,5.57,23.05,.2,29.2" style="fill:none; stroke:#231f20; stroke-linecap:round; stroke-linejoin:round; stroke-width:6px;"/><path d="M175.15,42.07c127.49-11.29,205.33,193.33,69.06,208.08-7.41-.35-16.56-4.09-17.31-12.4" style="fill:none; stroke:#231f20; stroke-miterlimit:10; stroke-width:6px;"/><path d="M234.78,233.05c-20.43,7.82-42.89,11.13-64.4,12.53-14.68,13.52-45.4,27.78-62,11-4-6-1-13,6-15,1-1,1-3,1.33-4.34-.44,.33-.82,.67-1.1,1.11,.59-.29,.74-.52,1.1-1.11-8.33,1.34-15.33-1.66-23.33-3.66-2,0-5,0-7,1-14,9-30,17-47,13" style="fill:none; stroke:#231f20; stroke-linecap:round; stroke-linejoin:round; stroke-width:6px;"/><path d="M116.38,239.59c-9.43-24.62,3.37-55.45,22.48-72.74" style="fill:none; stroke:#231f20; stroke-linecap:round; stroke-linejoin:round; stroke-width:6px;"/><path d="M163.41,251.29c19.27-14.3,36.49-44.73,35.41-68.7" style="fill:none; stroke:#231f20; stroke-linecap:round; stroke-miterlimit:10; stroke-width:6px;"/><path d="M254.63,237.23c-19.41-2.49-37.05-15.92-44.62-33.96" style="fill:none; stroke:#231f20; stroke-linecap:round; stroke-miterlimit:10; stroke-width:6px;"/><path d="M92.11,233.78c-22.5-11.13-41.12-29.94-52.02-52.56" style="fill:none; stroke:#231f20; stroke-linecap:round; stroke-miterlimit:10; stroke-width:6px;"/><path d="M34.4,43.92c-10.08,11.55-14.97,27.33-13.15,42.45C5.84,100.06-.7,122.68,5.08,142.31c4.44-1.31,8.89-2.62,13.33-3.94,4.08,31.25,11.21,62.11,21.26,92.02-6.31,2.99-9.38,14.48-1.29,17.18" style="fill:none; stroke:#231f20; stroke-linecap:round; stroke-linejoin:round; stroke-width:6px;"/><path d="M98.36,68.56c-3.31,7.31-1.68,16.57,3.89,22.35,7.8,8.24,22.44,8.27,29.87-.48,18.22-22.95-20.52-47.92-33.76-21.87Z" style="fill:none; stroke:#231f20; stroke-linecap:round; stroke-linejoin:round; stroke-width:6px;"/><path d="M63.09,113.9c-9.03-.1-14.43-11.68-7.14-17.79,7.58-5.7,22.24-3.76,19.95,8.36-2.46,10.54-13.52,7.33-14.1,15.03-.42,4.7,1.43,9.77-3.32,13.05-4.67,3.17-10.84,.03-13.32-4.52" style="fill:none; stroke:#231f20; stroke-linecap:round; stroke-linejoin:round; stroke-width:6px;"/><path d="M94.18,131.97c-7.02,2.72-17.28,5.31-24.01,.93-4.63-3.71-4.31-10.67-7.06-15.68" style="fill:none; stroke:#231f20; stroke-linecap:round; stroke-linejoin:round; stroke-width:6px;"/><path d="M80.12,137.33c.88,2.91-1.67,5.81-4.43,7.09-8.16,4.03-18.74-1.43-20.19-10.42" style="fill:none; stroke:#231f20; stroke-linecap:round; stroke-linejoin:round; stroke-width:6px;"/><path d="M143.57,37.96c1.72-8.07,8.92-14.66,17.11-15.65" style="fill:none; stroke:#231f20; stroke-linecap:round; stroke-linejoin:round; stroke-width:6px;"/><path d="M156.38,32.16c-4.16,.18-10.86,2.11-12.8,5.79,5.04,.76,12.33,4.24,16.12,7.65" style="fill:none; stroke:#231f20; stroke-linecap:round; stroke-linejoin:round; stroke-width:6px;"/><path d="M46.47,16.66c4.98-1.17,9.39,4.43,7.07,9" style="fill:none; stroke:#231f20; stroke-linecap:round; stroke-linejoin:round; stroke-width:6px;"/><path d="M18.41,138.38c3.69,8.87,11.36,21.01,19.48,26.13" style="fill:none; stroke:#231f20; stroke-linecap:round; stroke-linejoin:round; stroke-width:6px;"/><path d="M303.18,120.8c26.76,35.75,67.78,75.91,47.43,124.12-31.07,77.14-196.79,68.6-153.13,31.84,53.61-4.75,99-6.35,111.2-69.26" style="fill:none; stroke:#231f20; stroke-linecap:round; stroke-linejoin:round; stroke-width:6px;"/><path d="M55.51,82.47c9.19-15.42-9.49-32.27-23.01-19.72-9.35,8.44-7.31,24.39,3.86,30.21" style="fill:none; stroke:#231f20; stroke-linecap:round; stroke-linejoin:round; stroke-width:6px;"/><path d="M34.86,120.32c-.81-8.51-1.28-17.71,3.73-24.99" style="fill:none; stroke:#f4e9c8; stroke-linecap:round; stroke-linejoin:round; stroke-width:6px;"/></g><path d="M58.48,81.88c-9.85,.75-19.04,5.3-24.06,14.39l4.97,3.36c6.73-12.35,14.84-7.22,20.09-17.79-.32,.03-.67,.03-1,.03Z" style="fill:#f4e9c8;"/></g></svg>